<?xml version="1.0" encoding="UTF-8"?>
<svg version="1.1" xmlns="http://www.w3.org/2000/svg" width="459" height="99">
<path d="M0 0 C0.66 0.33 1.32 0.66 2 1 C5.75811566 0.95919124 9.50570793 0.87403291 13.25976562 0.69726562 C17.48276916 0.60388225 19.43826887 0.63241229 23.07421875 3.01171875 C23.70972656 3.66785156 24.34523438 4.32398438 25 5 C24.67 5.99 24.34 6.98 24 8 C25.97536745 7.65213292 25.97536745 7.65213292 28 7 C28.33 6.34 28.66 5.68 29 5 C29.66 5 30.32 5 31 5 C31.66 3.35 32.32 1.7 33 0 C37.875 2.75 37.875 2.75 39 5 C39.33 4.34 39.66 3.68 40 3 C45.94 2.67 51.88 2.34 58 2 C58.73287817 5.66439084 59.39987636 9.31352622 60 13 C61.093125 12.835 62.18625 12.67 63.3125 12.5 C66.77679294 12.03026536 69.94438114 11.99943052 73.43359375 12.03515625 C74.76822804 12.04443375 76.10286352 12.05354271 77.4375 12.0625 C78.75621094 12.07410156 80.07492187 12.08570313 81.43359375 12.09765625 C84.8059299 12.13637319 84.8059299 12.13637319 87.22265625 11.43359375 C89 11 89 11 90.86303711 11.46679688 C94.35841221 12.33894348 97.919692 12.10201104 101.5 12.0625 C102.25925781 12.05798828 103.01851563 12.05347656 103.80078125 12.04882812 C105.86721278 12.03616173 107.93361072 12.01830463 110 12 C111.32 12 112.64 12 114 12 C116.14843926 11.98860756 118.29687656 11.97684534 120.4453125 11.96484375 C123.00520765 11.95553987 125.56510353 11.94643284 128.125 11.9375 C130.07599609 11.92493164 130.07599609 11.92493164 132.06640625 11.91210938 C133.30519531 11.90888672 134.54398438 11.90566406 135.8203125 11.90234375 C137.52598389 11.89448853 137.52598389 11.89448853 139.26611328 11.88647461 C142 12 142 12 144 13 C145.56357343 16.69571901 144.66537975 20.15558369 144 24 C137.36166074 25.00966358 130.89478977 25.11779155 124.1875 25.0625 C122.63385742 25.05573242 122.63385742 25.05573242 121.04882812 25.04882812 C119.14085725 25.04014989 117.23289375 25.02940794 115.32495117 25.01586914 C112.36042441 24.99563453 109.40185972 25.01049369 106.4375 25.0625 C103 25 103 25 101 24 C100.67 24.66 100.34 25.32 100 26 C99.08476562 25.91621094 98.16953125 25.83242188 97.2265625 25.74609375 C96.03804688 25.64425781 94.84953125 25.54242188 93.625 25.4375 C92.44164062 25.33308594 91.25828125 25.22867188 90.0390625 25.12109375 C87.08101369 24.75846404 87.08101369 24.75846404 85 26 C82.90625 25.6953125 82.90625 25.6953125 80.5 25.125 C79.7059375 24.94195312 78.911875 24.75890625 78.09375 24.5703125 C76 24 76 24 74 23 C74 23.66 74 24.32 74 25 C72.515 25.495 72.515 25.495 71 26 C70.505 24.02 70.505 24.02 70 22 C69.236875 22.350625 68.47375 22.70125 67.6875 23.0625 C65 24 65 24 62 23 C62 20.69 62 18.38 62 16 C60.35 16.33 58.7 16.66 57 17 C57 18.98 57 20.96 57 23 C52.45967044 25.17935819 49.14912794 26.59873581 44 26 C43.34 25.34 42.68 24.68 42 24 C44.36292656 21.47411298 45.66462511 20.11179163 49 19 C49.33 17.02 49.66 15.04 50 13 C46.7 13.33 43.4 13.66 40 14 C39.855625 15.0725 39.71125 16.145 39.5625 17.25 C39.16250558 19.91662949 38.72408076 22.41399729 38 25 C36.02 25 34.04 25 32 25 C31.87625 23.865625 31.7525 22.73125 31.625 21.5625 C31.41875 20.386875 31.2125 19.21125 31 18 C30.34 17.67 29.68 17.34 29 17 C29 16.34 29 15.68 29 15 C28.34 14.67 27.68 14.34 27 14 C27.33 13.34 27.66 12.68 28 12 C27.01 12.33 26.02 12.66 25 13 C24.09162237 15.47739354 24 17.33579484 24 20 C24.66 20.99 25.32 21.98 26 23 C25.34 23.66 24.68 24.32 24 25 C21.5625 24.625 21.5625 24.625 19 24 C15.9561503 23.8388681 15.9561503 23.8388681 13.0625 25 C10 26 10 26 6 26 C6 25.01 6 24.02 6 23 C5.2575 23.515625 4.515 24.03125 3.75 24.5625 C1 26 1 26 -1.1875 25.9375 C-3.60518336 24.68697413 -4.17028466 23.56457469 -5 21 C-4.67 20.01 -4.34 19.02 -4 18 C-4.95093297 16.30485863 -5.95107762 14.63631892 -7 13 C-7 12.34 -7 11.68 -7 11 C-7.66 10.67 -8.32 10.34 -9 10 C-9 9.34 -9 8.68 -9 8 C-8.34 8 -7.68 8 -7 8 C-6.67 7.01 -6.34 6.02 -6 5 C-5.34 5 -4.68 5 -4 5 C-3.566875 4.0409375 -3.566875 4.0409375 -3.125 3.0625 C-2 1 -2 1 0 0 Z M42 6 C42.33 6.99 42.66 7.98 43 9 C44.65 9 46.3 9 48 9 C48.33 8.34 48.66 7.68 49 7 C46.69 6.67 44.38 6.34 42 6 Z M6 7 C7 10 7 10 7 10 Z M6 11 C5.67 11.66 5.34 12.32 5 13 C5.66 13 6.32 13 7 13 C6.67 12.34 6.34 11.68 6 11 Z M38 12 C39 14 39 14 39 14 Z M111 15 C111 18 111 18 111 18 Z M127 15 C127.33 15.66 127.66 16.32 128 17 C128.33 16.34 128.66 15.68 129 15 C128.34 15 127.68 15 127 15 Z M6 16 C7 18 7 18 7 18 Z M73 16 C74 20 74 20 74 20 Z M78 16 C78 17.98 78 19.96 78 22 C78.33 22 78.66 22 79 22 C79 20.02 79 18.04 79 16 C78.67 16 78.34 16 78 16 Z M2 17 C2.33 17.66 2.66 18.32 3 19 C3.66 18.34 4.32 17.68 5 17 C4.01 17 3.02 17 2 17 Z M111 18 C111 18.66 111 19.32 111 20 C111.66 19.67 112.32 19.34 113 19 C112.34 18.67 111.68 18.34 111 18 Z M129 19 C128.34 19.66 127.68 20.32 127 21 C127.99 21 128.98 21 130 21 C129.67 20.34 129.34 19.68 129 19 Z " fill="#1D191A" transform="translate(309,29)"/>
<path d="M0 0 C2.9375 2.5 2.9375 2.5 5 5 C5.763125 5.495 6.52625 5.99 7.3125 6.5 C9 8 9 8 9.4375 10.4375 C8.92924082 13.41444665 8.08341979 14.83644868 6 17 C5.34 17 4.68 17 4 17 C2.36323743 18.9600281 2.36323743 18.9600281 1 21 C2.7015625 21.2165625 2.7015625 21.2165625 4.4375 21.4375 C8 22 8 22 9 23 C9.61335675 29.01089616 8.35654656 33.11413933 5 38 C-0.27164652 44.06375921 -6.63043089 46.53183188 -14.5 47.375 C-23.11075239 46.45241939 -29.14413976 43.44833551 -35 37 C-39.2404099 30.2974166 -39.41690024 24.34276456 -37.83984375 16.74609375 C-35.52865113 9.18903137 -30.41527034 4.95380554 -23.63671875 1.265625 C-15.10464155 -2.82977205 -8.92486397 -4.04362769 0 0 Z M-16 14 C-16.33 14.99 -16.66 15.98 -17 17 C-18.33333333 17.66666667 -19.66666667 18.33333333 -21 19 C-23.42285473 21.63446711 -23.42285473 21.63446711 -24 25 C-23.34 25 -22.68 25 -22 25 C-21.62875 25.86625 -21.62875 25.86625 -21.25 26.75 C-19.83316683 29.3002997 -18.12372463 31.01785701 -16 33 C-12.03519703 31.32258336 -9.15958323 28.87873138 -6 26 C-5.67 25.01 -5.34 24.02 -5 23 C-6.45217676 21.49403892 -7.91192861 19.99537896 -9.375 18.5 C-10.18710938 17.6646875 -10.99921875 16.829375 -11.8359375 15.96875 C-13.7589659 13.77568714 -13.7589659 13.77568714 -16 14 Z " fill="#0464B0" transform="translate(142,27)"/>
<path d="M0 0 C0.99 0.66 1.98 1.32 3 2 C3.33 1.01 3.66 0.02 4 -1 C6.96390838 -2.48195419 9.72443978 -2.05746597 13 -2 C16.78341531 -2 20.45873594 -2.51141355 24.2109375 -2.9765625 C27.35366465 -3.00297197 29.21922586 -2.43523827 32 -1 C34.4375 1.625 34.4375 1.625 36 5 C35.72543571 7.89638408 34.93159815 10.20520555 34 13 C34 15.6465335 34.98139634 17.5808163 36 20 C31.81058524 21.2162817 28.23550181 20.81782293 23.98828125 20.25390625 C22.00342311 19.95777577 22.00342311 19.95777577 20 20 C20 20.66 20 21.32 20 22 C16.28400809 22.20086443 15.22791555 22.1519437 12 20 C11.505 20.495 11.505 20.495 11 21 C8.625 21.25 8.625 21.25 6 21 C4.1875 19.5 4.1875 19.5 3 18 C3.66 17.01 4.32 16.02 5 15 C5.07905064 12.66800612 5.08798769 10.33167378 5 8 C1.95086772 6.98888907 1.95086772 6.98888907 -1 8 C-1 8.60328125 -1 9.2065625 -1 9.828125 C-1 13.55208333 -1 17.27604167 -1 21 C-10.9 21 -20.8 21 -31 21 C-30.67 19.02 -30.34 17.04 -30 15 C-30.39938767 12.90178785 -30.39938767 12.90178785 -31 11 C-31 7 -31 7 -29.5 5.25 C-28.7575 4.63125 -28.7575 4.63125 -28 4 C-29.32 3.34 -30.64 2.68 -32 2 C-31.67 1.01 -31.34 0.02 -31 -1 C-30.28714844 -0.97679687 -29.57429687 -0.95359375 -28.83984375 -0.9296875 C-22.62589214 -0.77872233 -22.62589214 -0.77872233 -16.625 -2.1875 C-10.86968267 -3.47748492 -5.54791912 -1.76933637 0 0 Z M24 2 C24 2.66 24 3.32 24 4 C23.01 4.495 23.01 4.495 22 5 C22 5.66 22 6.32 22 7 C23.65 7 25.3 7 27 7 C26.67 5.35 26.34 3.7 26 2 C25.34 2 24.68 2 24 2 Z M1 3 C2 5 2 5 2 5 Z M11 3 C12.98 3.99 12.98 3.99 15 5 C15.33 4.34 15.66 3.68 16 3 C14.35 3 12.7 3 11 3 Z M12 5 C12 7.64 12 10.28 12 13 C12.66 12.34 13.32 11.68 14 11 C13.67801034 7.90073181 13.67801034 7.90073181 13 5 C12.67 5 12.34 5 12 5 Z M-22 7 C-21 10 -21 10 -21 10 Z M-28 10 C-27.34 10.66 -26.68 11.32 -26 12 C-26 11.34 -26 10.68 -26 10 C-26.66 10 -27.32 10 -28 10 Z M16 14 C16 14.66 16 15.32 16 16 C16.66 15.67 17.32 15.34 18 15 C17.34 14.67 16.68 14.34 16 14 Z " fill="#1E191B" transform="translate(263,33)"/>
<path d="M0 0 C2.9375 2.5 2.9375 2.5 5 5 C5.763125 5.495 6.52625 5.99 7.3125 6.5 C9 8 9 8 9.4375 10.4375 C8.92924082 13.41444665 8.08341979 14.83644868 6 17 C5.34 17 4.68 17 4 17 C3.360625 17.99 2.72125 18.98 2.0625 20 C1.0415625 21.485 1.0415625 21.485 0 23 C-0.99 23 -1.98 23 -3 23 C-2.34 23.66 -1.68 24.32 -1 25 C-1.886875 25.37125 -2.77375 25.7425 -3.6875 26.125 C-6.62721371 27.7889889 -7.67452525 28.59728194 -9.625 31.125 C-12 34 -12 34 -14.125 34.9375 C-16 35 -16 35 -19 34 C-19.33 33.34 -19.66 32.68 -20 32 C-23.02934491 31.34227572 -23.02934491 31.34227572 -26 31 C-25.34 29.35 -24.68 27.7 -24 26 C-24.66 26 -25.32 26 -26 26 C-25.58101826 21.11187968 -23.4649477 19.29592586 -20 16 C-19.62875 15.2575 -19.2575 14.515 -18.875 13.75 C-18 12 -18 12 -15 11 C-14.67 9.35 -14.34 7.7 -14 6 C-17.81894676 4.145083 -19.9207386 3.84943909 -24 5 C-24.7425 5.12375 -25.485 5.2475 -26.25 5.375 C-26.8275 5.58125 -27.405 5.7875 -28 6 C-28.33 6.99 -28.66 7.98 -29 9 C-29.639375 9.61875 -30.27875 10.2375 -30.9375 10.875 C-34.75031609 14.80335598 -35.27391938 18.98777731 -35.625 24.3125 C-35.69976562 25.38113281 -35.77453125 26.44976562 -35.8515625 27.55078125 C-35.90054688 28.35902344 -35.94953125 29.16726562 -36 30 C-35.3503125 30.2578125 -34.700625 30.515625 -34.03125 30.78125 C-33.3609375 31.1834375 -32.690625 31.585625 -32 32 C-31.66666667 34.33333333 -31.33333333 36.66666667 -31 39 C-29.23377831 40.42481768 -29.23377831 40.42481768 -27 41 C-26.38769531 41.34289062 -25.77539062 41.68578125 -25.14453125 42.0390625 C-22.70962346 43.13011408 -21.14747055 43.1758335 -18.5 43.0625 C-16.13586253 42.96939185 -14.22157838 42.9441889 -11.921875 43.5234375 C-9.13665403 44.21408172 -6.77498256 43.56761007 -4 43 C-4 42.01 -4 41.02 -4 40 C-1.41041797 37.06047445 0.25366514 35.24877829 4 34 C5.90006139 30.47131456 7.11682699 28.09817372 6.6875 24.0625 C6.460625 23.381875 6.23375 22.70125 6 22 C6.99 22.33 7.98 22.66 9 23 C9.49782502 28.97390029 8.41246522 33.03274294 5 38 C-0.27164652 44.06375921 -6.63043089 46.53183188 -14.5 47.375 C-23.11075239 46.45241939 -29.14413976 43.44833551 -35 37 C-39.2404099 30.2974166 -39.41690024 24.34276456 -37.83984375 16.74609375 C-35.52865113 9.18903137 -30.41527034 4.95380554 -23.63671875 1.265625 C-15.10464155 -2.82977205 -8.92486397 -4.04362769 0 0 Z M-16 14 C-16.33 14.99 -16.66 15.98 -17 17 C-18.33333333 17.66666667 -19.66666667 18.33333333 -21 19 C-23.42285473 21.63446711 -23.42285473 21.63446711 -24 25 C-23.34 25 -22.68 25 -22 25 C-21.62875 25.86625 -21.62875 25.86625 -21.25 26.75 C-19.83316683 29.3002997 -18.12372463 31.01785701 -16 33 C-12.03519703 31.32258336 -9.15958323 28.87873138 -6 26 C-5.67 25.01 -5.34 24.02 -5 23 C-6.45217676 21.49403892 -7.91192861 19.99537896 -9.375 18.5 C-10.18710938 17.6646875 -10.99921875 16.829375 -11.8359375 15.96875 C-13.7589659 13.77568714 -13.7589659 13.77568714 -16 14 Z " fill="#065DA1" transform="translate(142,27)"/>
<path d="M0 0 C0.66 0 1.32 0 2 0 C2.495 1.98 2.495 1.98 3 4 C3.86625 3.7215625 3.86625 3.7215625 4.75 3.4375 C7 3 7 3 8.75 3.5 C12.27037861 4.28230636 15.44802439 3.53279634 19 3 C19 3.66 19 4.32 19 5 C19.99 5.495 19.99 5.495 21 6 C21 7.98 21 9.96 21 12 C19.68 12.33 18.36 12.66 17 13 C17 10.69 17 8.38 17 6 C16.34 6.33 15.68 6.66 15 7 C15 8.65 15 10.3 15 12 C10.05165802 13.68243627 7.07087842 13.88832907 2 13 C-0.41585686 12.93406504 -2.8333543 12.9143619 -5.25 12.9375 C-6.47203125 12.94652344 -7.6940625 12.95554687 -8.953125 12.96484375 C-10.46132813 12.98224609 -10.46132813 12.98224609 -12 13 C-12.66 13 -13.32 13 -14 13 C-14.763125 13.20625 -15.52625 13.4125 -16.3125 13.625 C-19 14 -19 14 -21.5625 12.9375 C-22.366875 12.628125 -23.17125 12.31875 -24 12 C-26.06669397 12.90833725 -26.06669397 12.90833725 -28 14 C-29.33652417 13.67970009 -30.66934047 13.34385184 -32 13 C-33.74886981 12.93375493 -35.50002748 12.91447405 -37.25 12.9375 C-38.14203125 12.94652344 -39.0340625 12.95554687 -39.953125 12.96484375 C-40.62859375 12.97644531 -41.3040625 12.98804687 -42 13 C-42 10.69 -42 8.38 -42 6 C-42.99 6.495 -42.99 6.495 -44 7 C-44.65772428 10.02934491 -44.65772428 10.02934491 -45 13 C-45.639375 12.814375 -46.27875 12.62875 -46.9375 12.4375 C-47.9584375 12.2209375 -47.9584375 12.2209375 -49 12 C-49.33 12.33 -49.66 12.66 -50 13 C-55.52941176 13.23529412 -55.52941176 13.23529412 -58 12 C-58.99 12.495 -58.99 12.495 -60 13 C-65.27650728 13.44906445 -65.27650728 13.44906445 -67.8125 11.875 C-69.42228269 9.33323785 -69.67109009 6.9601892 -70 4 C-67.4146657 1.51807907 -66.07356189 1.00774336 -62.4375 0.625 C-58.64557745 1.03866428 -58.44320995 1.44573505 -56 4 C-53.48400985 3.66347631 -53.48400985 3.66347631 -51 3 C-50.01 3.33 -49.02 3.66 -48 4 C-47.01 3.835 -46.02 3.67 -45 3.5 C-42 3 -42 3 -39 4 C-38.0409375 3.7525 -38.0409375 3.7525 -37.0625 3.5 C-34.68227266 2.92297519 -33.30293321 3.25977147 -31 4 C-31 3.34 -31 2.68 -31 2 C-30.01 2 -29.02 2 -28 2 C-28 2.66 -28 3.32 -28 4 C-24.535 3.505 -24.535 3.505 -21 3 C-19.5393715 5.64738916 -19 6.89448334 -19 10 C-18.731875 9.030625 -18.46375 8.06125 -18.1875 7.0625 C-17.795625 6.051875 -17.40375 5.04125 -17 4 C-16.01 3.67 -15.02 3.34 -14 3 C-14 3.66 -14 4.32 -14 5 C-12.88625 4.649375 -11.7725 4.29875 -10.625 3.9375 C-7 3 -7 3 -5 4 C-4.67 3.01 -4.34 2.02 -4 1 C-3.01 1 -2.02 1 -1 1 C-0.67 0.67 -0.34 0.34 0 0 Z M-64 3 C-65.21690533 4.76529595 -65.21690533 4.76529595 -66 7 C-65.21690533 9.23470405 -65.21690533 9.23470405 -64 11 C-61.69 9.68 -59.38 8.36 -57 7 C-57.95865509 4.66924071 -57.95865509 4.66924071 -61 3 C-61.99 3 -62.98 3 -64 3 Z M-53 6 C-53.33 7.32 -53.66 8.64 -54 10 C-53.01 10 -52.02 10 -51 10 C-51.33 8.68 -51.66 7.36 -52 6 C-52.33 6 -52.66 6 -53 6 Z M-2 6 C-1 8 -1 8 -1 8 Z M6 6 C5.67 7.32 5.34 8.64 5 10 C5.99 10 6.98 10 8 10 C7.67 8.68 7.34 7.36 7 6 C6.67 6 6.34 6 6 6 Z M-9 6 C-9.99 6.495 -9.99 6.495 -11 7 C-10.67 8.32 -10.34 9.64 -10 11 C-8.35 10.34 -6.7 9.68 -5 9 C-5.99 8.67 -6.98 8.34 -8 8 C-8.33 7.34 -8.66 6.68 -9 6 Z " fill="#201D1F" transform="translate(280,56)"/>
<path d="M0 0 C1.65902344 0.00773437 1.65902344 0.00773437 3.3515625 0.015625 C5.07632813 0.0465625 5.07632813 0.0465625 6.8359375 0.078125 C8.57230469 0.08585937 8.57230469 0.08585937 10.34375 0.09375 C18.90215774 0.17373512 18.90215774 0.17373512 21.2109375 1.328125 C21.2109375 1.988125 21.2109375 2.648125 21.2109375 3.328125 C21.8709375 3.658125 22.5309375 3.988125 23.2109375 4.328125 C22.97890625 5.09576172 22.97890625 5.09576172 22.7421875 5.87890625 C21.78546456 10.28968038 21.75152591 14.81185104 21.4921875 19.30859375 C21.2109375 22.328125 21.2109375 22.328125 20.2109375 23.328125 C18.73091329 23.40300606 17.24739753 23.41133702 15.765625 23.390625 C14.85296875 23.38289063 13.9403125 23.37515625 13 23.3671875 C11.08072493 23.34145995 9.16145394 23.31542605 7.2421875 23.2890625 C2.10672326 23.24590734 -2.72927541 23.43109903 -7.7890625 24.328125 C-10.41201332 9.57402664 -10.41201332 9.57402664 -7.7890625 4.328125 C-8.4490625 3.998125 -9.1090625 3.668125 -9.7890625 3.328125 C-6.51283518 0.36926694 -4.36911214 -0.04028112 0 0 Z M10.2109375 8.328125 C10.2109375 8.658125 10.2109375 8.988125 10.2109375 9.328125 C11.8609375 9.328125 13.5109375 9.328125 15.2109375 9.328125 C15.2109375 8.998125 15.2109375 8.668125 15.2109375 8.328125 C13.5609375 8.328125 11.9109375 8.328125 10.2109375 8.328125 Z M-0.7890625 12.328125 C-0.4590625 13.648125 -0.1290625 14.968125 0.2109375 16.328125 C1.5309375 15.668125 2.8509375 15.008125 4.2109375 14.328125 C3.8809375 13.668125 3.5509375 13.008125 3.2109375 12.328125 C1.8909375 12.328125 0.5709375 12.328125 -0.7890625 12.328125 Z " fill="#211D1E" transform="translate(205.7890625,30.671875)"/>
<path d="M0 0 C3.3825 -0.04125 6.765 -0.0825 10.25 -0.125 C11.30993164 -0.14320801 12.36986328 -0.16141602 13.46191406 -0.18017578 C14.30463867 -0.1851709 15.14736328 -0.19016602 16.015625 -0.1953125 C16.87446289 -0.20578613 17.73330078 -0.21625977 18.61816406 -0.22705078 C21.24714027 0.02355888 22.82539265 0.50273939 25 2 C25.73872853 5.26271769 26.0189877 8.2215043 25.9375 11.5625 C25.86421501 14.15971145 25.86421501 14.15971145 27.1875 17 C28 20 28 20 26.875 22.75 C24.50706208 25.5915255 22.50007257 26.76824437 18.83349609 27.3347168 C18.07117676 27.37250244 17.30885742 27.41028809 16.5234375 27.44921875 C15.688125 27.49240234 14.8528125 27.53558594 13.9921875 27.58007812 C13.12851563 27.61552734 12.26484375 27.65097656 11.375 27.6875 C10.50359375 27.73455078 9.6321875 27.78160156 8.734375 27.83007812 C2.27052024 28.13526012 2.27052024 28.13526012 0 27 C0 18.09 0 9.18 0 0 Z M9 6 C9 7.32 9 8.64 9 10 C11.64 10 14.28 10 17 10 C16.67 8.68 16.34 7.36 16 6 C13.69 6 11.38 6 9 6 Z M9 16 C9 17.65 9 19.3 9 21 C10.27875 21.020625 11.5575 21.04125 12.875 21.0625 C13.59429687 21.07410156 14.31359375 21.08570313 15.0546875 21.09765625 C17.08185404 21.12649242 17.08185404 21.12649242 19 20 C19 19.01 19 18.02 19 17 C16.71294169 15.85647084 15.40735238 15.89665561 12.875 15.9375 C10.956875 15.9684375 10.956875 15.9684375 9 16 Z " fill="#211C1E" transform="translate(70,36)"/>
<path d="M0 0 C0.86625 0.4640625 0.86625 0.4640625 1.75 0.9375 C3.85732874 1.93262746 5.73738455 2.48908683 8 3 C8.99 3.33 9.98 3.66 11 4 C12.68496298 3.03114628 14.35178756 2.03013277 16 1 C16.99 1 17.98 1 19 1 C19.66 1.66 20.32 2.32 21 3 C25.09382783 3.83392789 28.00976333 4.0297385 32 3 C32.969375 3.165 33.93875 3.33 34.9375 3.5 C38.0441816 4.00721332 39.97072601 3.65497816 43 3 C43.99 3.33 44.98 3.66 46 4 C48.00212229 3.67966043 50.00239695 3.34740923 52 3 C52.495 3.495 52.495 3.495 53 4 C53.33 3.01 53.66 2.02 54 1 C54.99 1 55.98 1 57 1 C57 1.66 57 2.32 57 3 C58.670625 2.9071875 58.670625 2.9071875 60.375 2.8125 C62.169375 2.9053125 62.169375 2.9053125 64 3 C66.29633824 6.44450737 66.54016485 8.93812283 67 13 C63.36827405 14.25713591 60.7403311 13.63515056 57 13 C54.679515 12.9642391 52.37053562 12.99839625 50.05078125 13.0625 C48 13 48 13 45 12 C44.67 12.33 44.34 12.66 44 13 C42.31391034 13.07205511 40.62499341 13.08386068 38.9375 13.0625 C38.01839844 13.05347656 37.09929687 13.04445313 36.15234375 13.03515625 C35.44207031 13.02355469 34.73179687 13.01195313 34 13 C33.505 10.03 33.505 10.03 33 7 C32.34 8.32 31.68 9.64 31 11 C31.66 11.33 32.32 11.66 33 12 C28.93300948 12.77466486 25.13785275 13.09404211 21 13 C20.34 13 19.68 13 19 13 C17.845 12.979375 16.69 12.95875 15.5 12.9375 C12.14921378 12.74573772 12.14921378 12.74573772 10 14 C9.01 13.67 8.02 13.34 7 13 C7 10.69 7 8.38 7 6 C6.34 6 5.68 6 5 6 C5.2784375 7.175625 5.2784375 7.175625 5.5625 8.375 C6 11 6 11 5 13 C2.5 13.6875 2.5 13.6875 0 14 C-1 13 -1 13 -1.1328125 10.3125 C-1.13023437 9.219375 -1.12765625 8.12625 -1.125 7 C-1.12757813 5.906875 -1.13015625 4.81375 -1.1328125 3.6875 C-1 1 -1 1 0 0 Z M14 6 C14 7.32 14 8.64 14 10 C14.66 10 15.32 10 16 10 C16 8.68 16 7.36 16 6 C15.34 6 14.68 6 14 6 Z M23 6 C22.67 7.32 22.34 8.64 22 10 C22.99 10 23.98 10 25 10 C25 8.68 25 7.36 25 6 C24.34 6 23.68 6 23 6 Z M40 9 C40.66 9.66 41.32 10.32 42 11 C42.33 10.34 42.66 9.68 43 9 C42.01 9 41.02 9 40 9 Z " fill="#171416" transform="translate(348,56)"/>
<path d="M0 0 C3.82052997 2.98001338 4.64589344 4.91317405 6.125 9.4375 C5.465 10.0975 4.805 10.7575 4.125 11.4375 C4.125 12.4275 4.125 13.4175 4.125 14.4375 C4.785 14.7675 5.445 15.0975 6.125 15.4375 C4.80271571 21.12332243 2.72244698 23.1536093 -1.875 26.4375 C-7.12016472 28.18588824 -11.45010961 27.88871529 -16.625 26.25 C-21.06783595 23.77226457 -23.27009106 21.25222682 -24.875 16.4375 C-25.44270973 12.25064072 -25.74515443 9.83710051 -23.48828125 6.20703125 C-17.32219144 -1.13609957 -9.17632198 -4.52983691 0 0 Z M-14.8125 6.9375 C-16.40830773 10.69234172 -16.2636759 13.35640309 -15.875 17.4375 C-14.97742444 19.58530077 -14.97742444 19.58530077 -12.875 20.4375 C-8.23427586 21.01836343 -8.23427586 21.01836343 -4.125 19.1875 C-3.7125 18.61 -3.3 18.0325 -2.875 17.4375 C-2.2975 16.798125 -1.72 16.15875 -1.125 15.5 C0.37652496 13.51185454 0.37652496 13.51185454 -0.1875 11.1875 C-0.414375 10.61 -0.64125 10.0325 -0.875 9.4375 C-1.865 9.4375 -2.855 9.4375 -3.875 9.4375 C-4.535 8.1175 -5.195 6.7975 -5.875 5.4375 C-10.66739943 4.93154911 -10.66739943 4.93154911 -14.8125 6.9375 Z " fill="#1D191A" transform="translate(28.875,36.5625)"/>
<path d="M0 0 C2.58391364 1.96021035 3.61062139 4.29541977 4.69921875 7.2890625 C2.51171875 8.9140625 2.51171875 8.9140625 -0.30078125 10.2890625 C-3.212554 9.59578327 -4.77525314 8.93402882 -6.67578125 6.6015625 C-8.43370703 4.87211467 -8.43370703 4.87211467 -11.98828125 5.6015625 C-13.08140625 5.8284375 -14.17453125 6.0553125 -15.30078125 6.2890625 C-16.14176781 10.30710941 -16.3548307 13.30709793 -15.30078125 17.2890625 C-11.23621004 19.05762937 -11.23621004 19.05762937 -6.98828125 18.6015625 C-4.99742958 17.30350782 -4.99742958 17.30350782 -4.30078125 14.2890625 C-1.01381892 13.48953112 0.40945067 13.19247314 3.69921875 14.2890625 C4.01171875 16.4765625 4.01171875 16.4765625 3.69921875 19.2890625 C0.72829188 22.93905837 -1.85534151 24.86109421 -6.30078125 26.2890625 C-9.1953125 26.484375 -9.1953125 26.484375 -12.11328125 26.4140625 C-13.57701172 26.38699219 -13.57701172 26.38699219 -15.0703125 26.359375 C-15.80636719 26.33617188 -16.54242188 26.31296875 -17.30078125 26.2890625 C-17.30078125 25.6290625 -17.30078125 24.9690625 -17.30078125 24.2890625 C-19.77578125 23.2990625 -19.77578125 23.2990625 -22.30078125 22.2890625 C-22.30078125 21.6290625 -22.30078125 20.9690625 -22.30078125 20.2890625 C-23.29078125 19.9590625 -24.28078125 19.6290625 -25.30078125 19.2890625 C-26.92359397 15.75527404 -27.71910464 11.93546385 -26.75390625 8.13671875 C-25.92578125 6.2265625 -25.92578125 6.2265625 -24.30078125 3.2890625 C-23.64078125 3.2890625 -22.98078125 3.2890625 -22.30078125 3.2890625 C-21.97078125 2.2990625 -21.64078125 1.3090625 -21.30078125 0.2890625 C-13.95990871 -3.75590808 -7.37545562 -4.02824492 0 0 Z " fill="#1E1A1B" transform="translate(63.30078125,37.7109375)"/>
<path d="M0 0 C2.26953125 0.328125 2.26953125 0.328125 5 1 C6.39798828 1.17789063 6.39798828 1.17789063 7.82421875 1.359375 C8.76910156 1.48828125 9.71398437 1.6171875 10.6875 1.75 C12.11642578 1.92789063 12.11642578 1.92789063 13.57421875 2.109375 C16 3 16 3 17.31640625 5.2890625 C17.96195996 7.84914407 18.26809209 9.99260087 18.25 12.625 C18.25515625 13.38039063 18.2603125 14.13578125 18.265625 14.9140625 C18 17 18 17 16 20 C13.9765625 20.37109375 13.9765625 20.37109375 11.625 20.4375 C8.16031851 20.69414307 7.24686641 20.80130265 4.4375 23.0625 C3.963125 23.701875 3.48875 24.34125 3 25 C3 24.34 3 23.68 3 23 C1.35 23.33 -0.3 23.66 -2 24 C-2 23.01 -2 22.02 -2 21 C-3.06541016 20.90912109 -3.06541016 20.90912109 -4.15234375 20.81640625 C-5.07144531 20.73261719 -5.99054688 20.64882813 -6.9375 20.5625 C-8.31228516 20.44068359 -8.31228516 20.44068359 -9.71484375 20.31640625 C-12 20 -12 20 -13 19 C-13.12569503 16.8778002 -13.17576773 14.75088655 -13.1875 12.625 C-13.20167969 11.46226563 -13.21585938 10.29953125 -13.23046875 9.1015625 C-13 6 -13 6 -11 3 C-8.90625 2.55859375 -8.90625 2.55859375 -6.5 2.4375 C-2.80555416 2.33588254 -2.80555416 2.33588254 0 0 Z M-5 6 C-6.1577506 9.47325181 -6.06866652 12.36067448 -6 16 C-3.525 16.495 -3.525 16.495 -1 17 C-1 13.37 -1 9.74 -1 6 C-2.32 6 -3.64 6 -5 6 Z M8 6 C5.4345406 8.5654594 5.45953913 10.47686668 5 14 C7.475 14.99 7.475 14.99 10 16 C10 13.03 10 10.06 10 7 C9.34 6.67 8.68 6.34 8 6 Z " fill="#191517" transform="translate(176,31)"/>
<path d="M0 0 C1.175625 0.9590625 1.175625 0.9590625 2.375 1.9375 C4.79539281 3.98142313 4.79539281 3.98142313 7 5 C7.33 4.01 7.66 3.02 8 2 C8.99 2 9.98 2 11 2 C11.33 2.66 11.66 3.32 12 4 C17.08268017 4.94761834 20.89980375 4.97146595 26 4 C28 5 28 5 28.6328125 6.84765625 C28.87644531 7.94400391 28.87644531 7.94400391 29.125 9.0625 C29.37636719 10.16271484 29.37636719 10.16271484 29.6328125 11.28515625 C29.75398438 11.85105469 29.87515625 12.41695312 30 13 C25.59085217 14.10228696 21.51617599 14.07654536 17 14 C16.855625 13.38125 16.71125 12.7625 16.5625 12.125 C16.06847775 9.96741678 16.06847775 9.96741678 15 8 C14.67 9.98 14.34 11.96 14 14 C11.03 14 8.06 14 5 14 C4.87625 13.195625 4.7525 12.39125 4.625 11.5625 C4.41875 10.716875 4.2125 9.87125 4 9 C3.34 8.67 2.68 8.34 2 8 C2 9.32 2 10.64 2 12 C2.66 12.33 3.32 12.66 4 13 C1.23735711 13.59732819 -1.16032769 14 -4 14 C-5.7634375 14.061875 -5.7634375 14.061875 -7.5625 14.125 C-11 14 -11 14 -13 12 C-14.11517424 8.82604256 -14.16130892 7.41750544 -12.9375 4.25 C-11 2 -11 2 -8 1.125 C-5 1 -5 1 -2 2 C-1.34 1.34 -0.68 0.68 0 0 Z M-8 4 C-8.66 4.66 -9.32 5.32 -10 6 C-9.83492354 8.57540213 -9.83492354 8.57540213 -9 11 C-8.34 11.33 -7.68 11.66 -7 12 C-3.88667752 11.33131686 -3.88667752 11.33131686 -2.8125 8.9375 C-2.544375 8.298125 -2.27625 7.65875 -2 7 C-2.66 7 -3.32 7 -4 7 C-4 6.34 -4 5.68 -4 5 C-5.89179203 4.3185177 -5.89179203 4.3185177 -8 4 Z " fill="#1A171A" transform="translate(177,55)"/>
<path d="M0 0 C0.33 0.99 0.66 1.98 1 3 C2.670625 2.7215625 2.670625 2.7215625 4.375 2.4375 C8 2 8 2 10 3 C15.40475284 2.82165682 15.40475284 2.82165682 20 0.4375 C20.33 -0.036875 20.66 -0.51125 21 -1 C21.33 -0.01 21.66 0.98 22 2 C23.98 2.33 25.96 2.66 28 3 C27.34 4.32 26.68 5.64 26 7 C26.66 7.66 27.32 8.32 28 9 C28 9.99 28 10.98 28 12 C24.125 11.125 24.125 11.125 23 10 C22.67 10.66 22.34 11.32 22 12 C20.02 12 18.04 12 16 12 C16 9.69 16 7.38 16 5 C15.34 5 14.68 5 14 5 C14.020625 5.969375 14.04125 6.93875 14.0625 7.9375 C14 11 14 11 13 12 C11.36527118 12.08700342 9.72685945 12.10701063 8.08984375 12.09765625 C7.10048828 12.09443359 6.11113281 12.09121094 5.09179688 12.08789062 C4.05087891 12.07951172 3.00996094 12.07113281 1.9375 12.0625 C0.89271484 12.05798828 -0.15207031 12.05347656 -1.22851562 12.04882812 C-3.81903454 12.03699927 -6.40952422 12.01906319 -9 12 C-9 8.04 -9 4.08 -9 0 C-5.93109813 -1.53445094 -3.29905734 -0.54984289 0 0 Z M-5 2 C-5.33 2.66 -5.66 3.32 -6 4 C-4.68 3.67 -3.36 3.34 -2 3 C-2.99 2.67 -3.98 2.34 -5 2 Z M-6 7 C-5 9 -5 9 -5 9 Z M-4 7 C-4 7.66 -4 8.32 -4 9 C-3.01 9 -2.02 9 -1 9 C-1 8.34 -1 7.68 -1 7 C-1.99 7 -2.98 7 -4 7 Z M5 8 C5.33 8.66 5.66 9.32 6 10 C6.33 9.34 6.66 8.68 7 8 C6.34 8 5.68 8 5 8 Z " fill="#1B181A" transform="translate(314,57)"/>
<path d="M0 0 C0.99 0.33 1.98 0.66 3 1 C2.34 3.64 1.68 6.28 1 9 C1.99 8.67 2.98 8.34 4 8 C4.82638376 10.89234315 5 12.88742431 5 16 C5.99 15.67 6.98 15.34 8 15 C8 14.34 8 13.68 8 13 C11 14 11 14 12.1875 16.0625 C12.455625 16.701875 12.72375 17.34125 13 18 C11 19 11 19 9.1875 18.4375 C6.27253131 17.85450626 4.6372887 18.75461367 2 20 C2 20.66 2 21.32 2 22 C-1.71599191 22.20086443 -2.77208445 22.1519437 -6 20 C-6.33 20.33 -6.66 20.66 -7 21 C-9.375 21.25 -9.375 21.25 -12 21 C-13.8125 19.5 -13.8125 19.5 -15 18 C-14.01 16.515 -14.01 16.515 -13 15 C-12.75812349 12.25481679 -12.75812349 12.25481679 -12.875 9.3125 C-12.89304687 8.31863281 -12.91109375 7.32476562 -12.9296875 6.30078125 C-12.95289063 5.54152344 -12.97609375 4.78226563 -13 4 C-9.26798075 3.15323933 -6.73059699 3.04070363 -3 4 C-2.01 2.68 -1.02 1.36 0 0 Z M-6 5 C-6 7.64 -6 10.28 -6 13 C-5.34 12.34 -4.68 11.68 -4 11 C-4.32198966 7.90073181 -4.32198966 7.90073181 -5 5 C-5.33 5 -5.66 5 -6 5 Z M-2 14 C-2 14.66 -2 15.32 -2 16 C-1.34 15.67 -0.68 15.34 0 15 C-0.66 14.67 -1.32 14.34 -2 14 Z " fill="#1F191D" transform="translate(281,33)"/>
<path d="M0 0 C0.33 0.66 0.66 1.32 1 2 C-3.625 6 -3.625 6 -7 6 C-7.33 6.99 -7.66 7.98 -8 9 C-8.639375 9.61875 -9.27875 10.2375 -9.9375 10.875 C-13.75031609 14.80335598 -14.27391938 18.98777731 -14.625 24.3125 C-14.69976562 25.38113281 -14.77453125 26.44976562 -14.8515625 27.55078125 C-14.90054688 28.35902344 -14.94953125 29.16726562 -15 30 C-14.3503125 30.2578125 -13.700625 30.515625 -13.03125 30.78125 C-12.02578125 31.38453125 -12.02578125 31.38453125 -11 32 C-10.66666667 34.33333333 -10.33333333 36.66666667 -10 39 C-8.23377831 40.42481768 -8.23377831 40.42481768 -6 41 C-5.38769531 41.34289062 -4.77539062 41.68578125 -4.14453125 42.0390625 C-1.70962346 43.13011408 -0.14747055 43.1758335 2.5 43.0625 C4.86413747 42.96939185 6.77842162 42.9441889 9.078125 43.5234375 C11.86334597 44.21408172 14.22501744 43.56761007 17 43 C17 42.01 17 41.02 17 40 C19.58958203 37.06047445 21.25366514 35.24877829 25 34 C26.90006139 30.47131456 28.11682699 28.09817372 27.6875 24.0625 C27.460625 23.381875 27.23375 22.70125 27 22 C27.99 22.33 28.98 22.66 30 23 C30.49782502 28.97390029 29.41246522 33.03274294 26 38 C20.72835348 44.06375921 14.36956911 46.53183188 6.5 47.375 C-2.11075239 46.45241939 -8.14413976 43.44833551 -14 37 C-18.2404099 30.2974166 -18.41690024 24.34276456 -16.83984375 16.74609375 C-14.40673804 8.79040392 -9.02491076 4.94006851 -1.9765625 1.03125 C-1.32429688 0.6909375 -0.67203125 0.350625 0 0 Z " fill="#0D5793" transform="translate(121,27)"/>
<path d="M0 0 C0.78552246 0.01047363 1.57104492 0.02094727 2.38037109 0.03173828 C3.23115234 0.03818359 4.08193359 0.04462891 4.95849609 0.05126953 C6.29267578 0.07640625 6.29267578 0.07640625 7.65380859 0.10205078 C8.55099609 0.11107422 9.44818359 0.12009766 10.37255859 0.12939453 C12.59157445 0.15300108 14.81005937 0.18592768 17.02880859 0.22705078 C17.35880859 1.54705078 17.68880859 2.86705078 18.02880859 4.22705078 C17.03880859 4.22705078 16.04880859 4.22705078 15.02880859 4.22705078 C15.02880859 4.88705078 15.02880859 5.54705078 15.02880859 6.22705078 C14.36880859 6.22705078 13.70880859 6.22705078 13.02880859 6.22705078 C12.69880859 6.88705078 12.36880859 7.54705078 12.02880859 8.22705078 C12.02880859 7.56705078 12.02880859 6.90705078 12.02880859 6.22705078 C11.03880859 6.22705078 10.04880859 6.22705078 9.02880859 6.22705078 C10.01880859 7.54705078 11.00880859 8.86705078 12.02880859 10.22705078 C10.70880859 10.22705078 9.38880859 10.22705078 8.02880859 10.22705078 C8.02880859 8.90705078 8.02880859 7.58705078 8.02880859 6.22705078 C7.36880859 6.22705078 6.70880859 6.22705078 6.02880859 6.22705078 C6.02880859 7.54705078 6.02880859 8.86705078 6.02880859 10.22705078 C4.70880859 9.56705078 3.38880859 8.90705078 2.02880859 8.22705078 C2.02880859 9.21705078 2.02880859 10.20705078 2.02880859 11.22705078 C1.69880859 12.21705078 1.36880859 13.20705078 1.02880859 14.22705078 C-1.94119141 13.23705078 -4.91119141 12.24705078 -7.97119141 11.22705078 C-8.09494141 10.09267578 -8.21869141 8.95830078 -8.34619141 7.78955078 C-8.55244141 6.61392578 -8.75869141 5.43830078 -8.97119141 4.22705078 C-9.63119141 3.89705078 -10.29119141 3.56705078 -10.97119141 3.22705078 C-9.85744141 3.10330078 -8.74369141 2.97955078 -7.59619141 2.85205078 C-4.06565968 2.24333841 -3.16361632 0.3643997 0 0 Z " fill="#221C1D" transform="translate(401.97119140625,40.77294921875)"/>
<path d="M0 0 C1.32 0 2.64 0 4 0 C4.99 2.64 5.98 5.28 7 8 C6.01 8.66 5.02 9.32 4 10 C3.27034634 12.56282742 3.27034634 12.56282742 3 15 C2.01 14.34 1.02 13.68 0 13 C-0.40843923 10.28796348 -0.13336867 7.7562858 0 5 C-2.03883888 5.66423207 -2.03883888 5.66423207 -4 7 C-4.6993514 9.18541552 -4.6993514 9.18541552 -4.75 11.625 C-4.80671875 12.44226562 -4.8634375 13.25953125 -4.921875 14.1015625 C-4.94765625 14.72804688 -4.9734375 15.35453125 -5 16 C-4.01 16 -3.02 16 -2 16 C-2 16.99 -2 17.98 -2 19 C-3.47906892 19.02689216 -4.95827483 19.04634621 -6.4375 19.0625 C-7.67306641 19.07990234 -7.67306641 19.07990234 -8.93359375 19.09765625 C-11 19 -11 19 -12 18 C-12.12569503 15.8778002 -12.17576773 13.75088655 -12.1875 11.625 C-12.20167969 10.46226563 -12.21585938 9.29953125 -12.23046875 8.1015625 C-12 5 -12 5 -10 2 C-7.87109375 1.5234375 -7.87109375 1.5234375 -5.4375 1.375 C-2.41923553 1.39637058 -2.41923553 1.39637058 0 0 Z " fill="#211B1E" transform="translate(175,32)"/>
<path d="M0 0 C1.65 0 3.3 0 5 0 C5.66 1.65 6.32 3.3 7 5 C7.99 4.67 8.98 4.34 10 4 C10.33 4.99 10.66 5.98 11 7 C11.556875 6.62875 12.11375 6.2575 12.6875 5.875 C15 5 15 5 17.625 5.875 C18.40875 6.24625 19.1925 6.6175 20 7 C20.66 7 21.32 7 22 7 C21.67 5.02 21.34 3.04 21 1 C24 1 24 1 26 2 C25.67 2.99 25.34 3.98 25 5 C30.445 6.485 30.445 6.485 36 8 C36 7.34 36 6.68 36 6 C37.32 6.33 38.64 6.66 40 7 C40 7.66 40 8.32 40 9 C33.36166074 10.00966358 26.89478977 10.11779155 20.1875 10.0625 C18.63385742 10.05573242 18.63385742 10.05573242 17.04882812 10.04882812 C15.14085725 10.04014989 13.23289375 10.02940794 11.32495117 10.01586914 C8.36042441 9.99563453 5.40185972 10.01049369 2.4375 10.0625 C-1 10 -1 10 -3 9 C-3.33 9.66 -3.66 10.32 -4 11 C-5.65 10.67 -7.3 10.34 -9 10 C-9.33 8.68 -9.66 7.36 -10 6 C-7 6 -7 6 -5 7 C-4.67 5.68 -4.34 4.36 -4 3 C-3.34 4.32 -2.68 5.64 -2 7 C-1.67 6.67 -1.34 6.34 -1 6 C-1.33 5.01 -1.66 4.02 -2 3 C-0.68 3 0.64 3 2 3 C1.67 2.67 1.34 2.34 1 2 C0.67 1.34 0.34 0.68 0 0 Z " fill="#1A1517" transform="translate(413,44)"/>
<path d="M0 0 C0.66 0 1.32 0 2 0 C2.33 1.32 2.66 2.64 3 4 C3.86625 3.7215625 3.86625 3.7215625 4.75 3.4375 C7 3 7 3 8.75 3.5 C12.27037861 4.28230636 15.44802439 3.53279634 19 3 C19 3.66 19 4.32 19 5 C19.66 5.33 20.32 5.66 21 6 C21 7.98 21 9.96 21 12 C19.68 12.33 18.36 12.66 17 13 C17 10.69 17 8.38 17 6 C16.01 6.495 16.01 6.495 15 7 C15 8.65 15 10.3 15 12 C10.05021894 13.68292556 7.07205779 13.88637903 2 13 C-0.45754141 12.93421998 -2.91668778 12.91430838 -5.375 12.9375 C-6.62023437 12.94652344 -7.86546875 12.95554687 -9.1484375 12.96484375 C-10.08945312 12.97644531 -11.03046875 12.98804687 -12 13 C-11.67 12.01 -11.34 11.02 -11 10 C-8.26969007 8.7323561 -7.12647354 8.95688402 -4.25 9.9375 C-3.5075 10.288125 -2.765 10.63875 -2 11 C-1.17361624 8.10765685 -1 6.11257569 -1 3 C-0.67 2.01 -0.34 1.02 0 0 Z M6 6 C5.67 7.32 5.34 8.64 5 10 C5.99 10 6.98 10 8 10 C7.67 8.68 7.34 7.36 7 6 C6.67 6 6.34 6 6 6 Z " fill="#1A171A" transform="translate(280,56)"/>
<path d="M0 0 C1.0194119 0.98020375 2.02246356 1.97803008 3 3 C4.67542976 2.71395102 6.34385343 2.38218767 8 2 C8.66 2.66 9.32 3.32 10 4 C9.360625 4.268125 8.72125 4.53625 8.0625 4.8125 C5.66868314 5.88667752 5.66868314 5.88667752 5 9 C10.01535052 8.67039784 10.01535052 8.67039784 14 6 C14 7.98 14 9.96 14 12 C13.360625 11.814375 12.72125 11.62875 12.0625 11.4375 C11.0415625 11.2209375 11.0415625 11.2209375 10 11 C9.67 11.33 9.34 11.66 9 12 C3.47058824 12.23529412 3.47058824 12.23529412 1 11 C0.01 11.495 0.01 11.495 -1 12 C-6.27650728 12.44906445 -6.27650728 12.44906445 -8.8125 10.875 C-10.42228269 8.33323785 -10.67109009 5.9601892 -11 3 C-7.49901508 -0.36094553 -4.74440725 -0.5175717 0 0 Z M-5 2 C-6.21690533 3.76529595 -6.21690533 3.76529595 -7 6 C-6.21690533 8.23470405 -6.21690533 8.23470405 -5 10 C-2.69 8.68 -0.38 7.36 2 6 C1.04134491 3.66924071 1.04134491 3.66924071 -2 2 C-2.99 2 -3.98 2 -5 2 Z " fill="#1C1B1D" transform="translate(221,57)"/>
<path d="M0 0 C0.99 0.33 1.98 0.66 3 1 C2.34 3.64 1.68 6.28 1 9 C1.99 8.67 2.98 8.34 4 8 C4.82638376 10.89234315 5 12.88742431 5 16 C5.99 15.67 6.98 15.34 8 15 C8 14.34 8 13.68 8 13 C11 14 11 14 12.1875 16.0625 C12.455625 16.701875 12.72375 17.34125 13 18 C11 19 11 19 9.0625 18.5 C6.82334576 17.76397597 6.82334576 17.76397597 4 19 C4 18.34 4 17.68 4 17 C3.01 17 2.02 17 1 17 C-0.5625 15.5625 -0.5625 15.5625 -2 14 C-2.66 13.67 -3.32 13.34 -4 13 C-4.33 14.65 -4.66 16.3 -5 18 C-5.66 17.67 -6.32 17.34 -7 17 C-6.67 16.13375 -6.34 15.2675 -6 14.375 C-4.81887351 11.09527263 -4.81887351 11.09527263 -5.1875 7.9375 C-5 5 -5 5 -2.5 2.125 C-1.2625 1.073125 -1.2625 1.073125 0 0 Z " fill="#211C20" transform="translate(281,33)"/>
<path d="M0 0 C1 1.5625 1 1.5625 1 3.5625 C0.113125 3.253125 -0.77375 2.94375 -1.6875 2.625 C-7.48842388 0.7643263 -10.21300287 0.36344109 -16 2.5625 C-20.1428617 3.87077211 -23.64396476 4.82650214 -28 4.5625 C-27.67 5.5525 -27.34 6.5425 -27 7.5625 C-27.99 8.0575 -27.99 8.0575 -29 8.5625 C-29.99 8.2325 -30.98 7.9025 -32 7.5625 C-32.99 7.8925 -33.98 8.2225 -35 8.5625 C-35 7.9025 -35 7.2425 -35 6.5625 C-34.34 6.5625 -33.68 6.5625 -33 6.5625 C-33.66 4.5825 -34.32 2.6025 -35 0.5625 C-32.525 1.5525 -32.525 1.5525 -30 2.5625 C-29.67 1.5725 -29.34 0.5825 -29 -0.4375 C-26.03609162 -1.91945419 -23.27556022 -1.49496597 -20 -1.4375 C-16.95293314 -1.35060733 -16.95293314 -1.35060733 -13.8125 -2 C-9.01941295 -2.55002638 -4.09797857 -2.9454221 0 0 Z M-32 3.5625 C-31 5.5625 -31 5.5625 -31 5.5625 Z " fill="#140F11" transform="translate(296,32.4375)"/>
<path d="M0 0 C4.35937258 0.9907665 7.03778651 4.17024967 9.75 7.625 C9.75 8.285 9.75 8.945 9.75 9.625 C11.07 10.285 12.39 10.945 13.75 11.625 C12.76 12.285 11.77 12.945 10.75 13.625 C8.18550015 15.54837489 6.05648368 17.19592285 4.1875 19.8125 C2.75 21.625 2.75 21.625 0.75 22.4375 C-1.25 22.625 -1.25 22.625 -4.25 21.625 C-4.58 20.965 -4.91 20.305 -5.25 19.625 C-8.27934491 18.96727572 -8.27934491 18.96727572 -11.25 18.625 C-10.59 16.975 -9.93 15.325 -9.25 13.625 C-9.91 13.625 -10.57 13.625 -11.25 13.625 C-10.83286812 8.7584614 -8.79534674 6.83269467 -5.25 3.625 C-4.755 3.026875 -4.26 2.42875 -3.75 1.8125 C-2.25 0.625 -2.25 0.625 0 0 Z M-1.25 1.625 C-1.58 2.615 -1.91 3.605 -2.25 4.625 C-3.58333333 5.29166667 -4.91666667 5.95833333 -6.25 6.625 C-8.67285473 9.25946711 -8.67285473 9.25946711 -9.25 12.625 C-8.59 12.625 -7.93 12.625 -7.25 12.625 C-6.87875 13.49125 -6.87875 13.49125 -6.5 14.375 C-5.08316683 16.9252997 -3.37372463 18.64285701 -1.25 20.625 C2.71480297 18.94758336 5.59041677 16.50373138 8.75 13.625 C9.08 12.635 9.41 11.645 9.75 10.625 C8.29782324 9.11903892 6.83807139 7.62037896 5.375 6.125 C4.56289062 5.2896875 3.75078125 4.454375 2.9140625 3.59375 C0.9910341 1.40068714 0.9910341 1.40068714 -1.25 1.625 Z " fill="#135C94" transform="translate(127.25,39.375)"/>
<path d="M0 0 C2.64 0 5.28 0 8 0 C9.20568053 4.67201205 9.09382426 9.21496292 9 14 C11.475 14.99 11.475 14.99 14 16 C11.6720413 18.76818166 10.07908346 19.46055679 6.5 19.8125 C5.7265625 19.90144531 4.953125 19.99039063 4.15625 20.08203125 C2 20 2 20 -1 18 C1.36292656 15.47411298 2.66462511 14.11179163 6 13 C6.33 11.02 6.66 9.04 7 7 C3.37 7.33 -0.26 7.66 -4 8 C-4 7.34 -4 6.68 -4 6 C-3.01 5.34 -2.02 4.68 -1 4 C-0.67 3.34 -0.34 2.68 0 2 C1.65 2 3.3 2 5 2 C3.35 1.67 1.7 1.34 0 1 C0 0.67 0 0.34 0 0 Z " fill="#171314" transform="translate(352,35)"/>
<path d="M0 0 C0.33 0.66 0.66 1.32 1 2 C-3.625 6 -3.625 6 -7 6 C-7.33 6.99 -7.66 7.98 -8 9 C-8.639375 9.61875 -9.27875 10.2375 -9.9375 10.875 C-13.75031609 14.80335598 -14.27391938 18.98777731 -14.625 24.3125 C-14.69976562 25.38113281 -14.77453125 26.44976562 -14.8515625 27.55078125 C-14.90054688 28.35902344 -14.94953125 29.16726562 -15 30 C-14.03320312 30.38285156 -14.03320312 30.38285156 -13.046875 30.7734375 C-12.37140625 31.17820312 -11.6959375 31.58296875 -11 32 C-10.25 35.625 -10.25 35.625 -10 39 C-9.34 39 -8.68 39 -8 39 C-8 39.66 -8 40.32 -8 41 C-11.85602368 39.48513355 -13.7785857 37.48021573 -16 34 C-18.65664071 27.26351819 -18.25645189 20.80964947 -16 14 C-12.51498439 6.98156578 -6.77739616 3.53603278 0 0 Z " fill="#115886" transform="translate(121,27)"/>
<path d="M0 0 C0.66 0.33 1.32 0.66 2 1 C1.625 2.9375 1.625 2.9375 1 5 C0.01 5.495 0.01 5.495 -1 6 C-0.67 6.66 -0.34 7.32 0 8 C-0.33 8.61875 -0.66 9.2375 -1 9.875 C-2.24870064 12.52848885 -1.71361481 13.22483129 -1 16 C-1.27313343 18.34114367 -1.59802999 20.67750658 -2 23 C-0.35 22.67 1.3 22.34 3 22 C3 22.99 3 23.98 3 25 C0.6875 25.6875 0.6875 25.6875 -2 26 C-3.875 24.875 -3.875 24.875 -5 23 C-4.835 22.21625 -4.67 21.4325 -4.5 20.625 C-3.83103444 17.11293084 -5.05336778 15.88101569 -7 13 C-7 12.34 -7 11.68 -7 11 C-7.66 10.67 -8.32 10.34 -9 10 C-9 9.34 -9 8.68 -9 8 C-8.34 8 -7.68 8 -7 8 C-6.67 7.01 -6.34 6.02 -6 5 C-5.34 5 -4.68 5 -4 5 C-3.566875 4.0409375 -3.566875 4.0409375 -3.125 3.0625 C-2 1 -2 1 0 0 Z " fill="#171314" transform="translate(309,29)"/>
<path d="M0 0 C1.32 0.66 2.64 1.32 4 2 C3.67 2.99 3.34 3.98 3 5 C6.63 5.99 10.26 6.98 14 8 C14 7.34 14 6.68 14 6 C15.32 6.33 16.64 6.66 18 7 C18 7.66 18 8.32 18 9 C11.30139078 10.02250405 4.7684802 10.11756273 -2 10.0625 C-3.06089844 10.05798828 -4.12179687 10.05347656 -5.21484375 10.04882812 C-7.80995598 10.03713843 -10.40494709 10.02075276 -13 10 C-13 8.68 -13 7.36 -13 6 C-12.34 6.33 -11.68 6.66 -11 7 C-10.401875 6.649375 -9.80375 6.29875 -9.1875 5.9375 C-7 5 -7 5 -4.375 5.875 C-3.59125 6.24625 -2.8075 6.6175 -2 7 C-1.34 7 -0.68 7 0 7 C-0.185625 6.030625 -0.37125 5.06125 -0.5625 4.0625 C-0.706875 3.051875 -0.85125 2.04125 -1 1 C-0.67 0.67 -0.34 0.34 0 0 Z " fill="#0E0B0C" transform="translate(435,44)"/>
<path d="M0 0 C0.33 0.66 0.66 1.32 1 2 C1.66 2.33 2.32 2.66 3 3 C3.33 3.66 3.66 4.32 4 5 C3.34 5 2.68 5 2 5 C2.350625 5.763125 2.70125 6.52625 3.0625 7.3125 C4 10 4 10 3 13 C0.03 12.01 -2.94 11.02 -6 10 C-6.12375 8.865625 -6.2475 7.73125 -6.375 6.5625 C-6.58125 5.386875 -6.7875 4.21125 -7 3 C-7.66 2.67 -8.32 2.34 -9 2 C-7.88625 1.855625 -6.7725 1.71125 -5.625 1.5625 C-2.17857953 1.21627965 -2.17857953 1.21627965 0 0 Z " fill="#211D1F" transform="translate(400,42)"/>
<path d="M0 0 C1.35335895 0.97272675 2.68662604 1.9739266 4 3 C5.64797236 3.71162443 7.31165408 4.39031953 9 5 C9 7.64 9 10.28 9 13 C4.97544188 12.46828162 3.18477189 10.49778178 0.4375 7.625 C-0.32691406 6.83351563 -1.09132812 6.04203125 -1.87890625 5.2265625 C-2.57886719 4.49179687 -3.27882812 3.75703125 -4 3 C-4.99670875 1.99671955 -5.99519624 0.99517305 -7 0 C-4.25700998 -1.37149501 -2.91518346 -0.83290956 0 0 Z " fill="#0960A6" transform="translate(139,28)"/>
<path d="M0 0 C0.66 1.32 1.32 2.64 2 4 C2.99 4 3.98 4 5 4 C5.66 4.33 6.32 4.66 7 5 C7.33 3.35 7.66 1.7 8 0 C8.66 0 9.32 0 10 0 C10 0.99 10 1.98 10 3 C10.66 3 11.32 3 12 3 C12.33 2.34 12.66 1.68 13 1 C13 1.99 13 2.98 13 4 C13.99 4 14.98 4 16 4 C16 4.99 16 5.98 16 7 C15.34 7 14.68 7 14 7 C14 7.66 14 8.32 14 9 C10.28400809 9.20086443 9.22791555 9.1519437 6 7 C5.67 7.33 5.34 7.66 5 8 C2.625 8.25 2.625 8.25 0 8 C-1.8125 6.5 -1.8125 6.5 -3 5 C-2.01 3.35 -1.02 1.7 0 0 Z " fill="#161315" transform="translate(269,46)"/>
<path d="M0 0 C0 0.99 0 1.98 0 3 C2.31 3.33 4.62 3.66 7 4 C7.125 10.625 7.125 10.625 6 14 C4.02 14 2.04 14 0 14 C-0.12375 12.865625 -0.2475 11.73125 -0.375 10.5625 C-0.58125 9.386875 -0.7875 8.21125 -1 7 C-1.66 6.67 -2.32 6.34 -3 6 C-3 5.34 -3 4.68 -3 4 C-3.66 3.67 -4.32 3.34 -5 3 C-2.25 0 -2.25 0 0 0 Z " fill="#1A1617" transform="translate(341,40)"/>
<path d="M0 0 C3.72450216 2.10515339 5.6795921 3.24267224 7.375 7.25 C7.58125 8.1575 7.7875 9.065 8 10 C7.34 10.66 6.68 11.32 6 12 C5.30251417 13.31747324 4.63040043 14.64914193 4 16 C2.68 15.01 1.36 14.02 0 13 C0.33 12.34 0.66 11.68 1 11 C0.01 10.67 -0.98 10.34 -2 10 C-3.1875 7.4375 -3.1875 7.4375 -4 5 C-1.69 5.33 0.62 5.66 3 6 C1.68 4.35 0.36 2.7 -1 1 C-0.67 0.67 -0.34 0.34 0 0 Z " fill="#171315" transform="translate(27,36)"/>
<path d="M0 0 C0.90105469 0.01804688 1.80210938 0.03609375 2.73046875 0.0546875 C3.41753906 0.07789063 4.10460938 0.10109375 4.8125 0.125 C4.8125 0.785 4.8125 1.445 4.8125 2.125 C5.8025 2.785 6.7925 3.445 7.8125 4.125 C7.8125 4.785 7.8125 5.445 7.8125 6.125 C4.80218256 7.05923645 3.94599732 7.16949911 0.8125 6.125 C-0.1775 6.125 -1.1675 6.125 -2.1875 6.125 C-2.1875 5.465 -2.1875 4.805 -2.1875 4.125 C-4.8275 4.785 -7.4675 5.445 -10.1875 6.125 C-7.96735818 1.00159579 -5.45984177 -0.14181407 0 0 Z " fill="#231F20" transform="translate(22.1875,35.875)"/>
<path d="M0 0 C5.625 -0.25 5.625 -0.25 9 2 C9 2.99 9 3.98 9 5 C7.68 5 6.36 5 5 5 C5 7.64 5 10.28 5 13 C3.0625 12.625 3.0625 12.625 1 12 C-0.26237731 9.47524538 -0.09856404 7.68799534 -0.0625 4.875 C-0.05347656 3.96492188 -0.04445313 3.05484375 -0.03515625 2.1171875 C-0.02355469 1.41851562 -0.01195312 0.71984375 0 0 Z " fill="#221D1F" transform="translate(360,37)"/>
<path d="M0 0 C0.66 0.33 1.32 0.66 2 1 C2 1.66 2 2.32 2 3 C4.97 3.495 4.97 3.495 8 4 C7.34 5.32 6.68 6.64 6 8 C6.66 8.66 7.32 9.32 8 10 C8 10.99 8 11.98 8 13 C4.125 12.125 4.125 12.125 3 11 C2.67 11.66 2.34 12.32 2 13 C0.02 13 -1.96 13 -4 13 C-4 12.01 -4 11.02 -4 10 C-2.02 9.01 -0.04 8.02 2 7 C1.34 4.69 0.68 2.38 0 0 Z " fill="#151214" transform="translate(334,56)"/>
<path d="M0 0 C1.17755859 0.02320312 1.17755859 0.02320312 2.37890625 0.046875 C4.4375 0.25 4.4375 0.25 6.4375 1.25 C6.4375 1.91 6.4375 2.57 6.4375 3.25 C7.0975 3.58 7.7575 3.91 8.4375 4.25 C7.7775 5.57 7.1175 6.89 6.4375 8.25 C5.7775 6.6 5.1175 4.95 4.4375 3.25 C2.7875 3.58 1.1375 3.91 -0.5625 4.25 C0.4275 6.56 1.4175 8.87 2.4375 11.25 C1.7775 11.91 1.1175 12.57 0.4375 13.25 C-0.81914978 10.34399739 -1.5625 8.45395416 -1.5625 5.25 C-3.8725 5.25 -6.1825 5.25 -8.5625 5.25 C-6.49599151 1.11698301 -4.62974604 -0.15254517 0 0 Z " fill="#1F1C1C" transform="translate(220.5625,30.75)"/>
<path d="M0 0 C3.36241563 0.45438049 6.04009971 1.35561095 9 3 C9 4.65 9 6.3 9 8 C7.02 8.66 5.04 9.32 3 10 C2.67 9.01 2.34 8.02 2 7 C1.01 7 0.02 7 -1 7 C-1.04254356 5.00045254 -1.04080783 2.99958364 -1 1 C-0.67 0.67 -0.34 0.34 0 0 Z " fill="#1D1A1C" transform="translate(396,59)"/>
<path d="M0 0 C-0.66 0.66 -1.32 1.32 -2 2 C-3.32 2 -4.64 2 -6 2 C-6 2.66 -6 3.32 -6 4 C-4.68 4 -3.36 4 -2 4 C-2.33 4.66 -2.66 5.32 -3 6 C-4.65 6 -6.3 6 -8 6 C-7.67 6.99 -7.34 7.98 -7 9 C-7.99 9.495 -7.99 9.495 -9 10 C-9.99 9.67 -10.98 9.34 -12 9 C-12.99 9.33 -13.98 9.66 -15 10 C-15 9.34 -15 8.68 -15 8 C-14.34 8 -13.68 8 -13 8 C-13.66 6.02 -14.32 4.04 -15 2 C-12.525 2.99 -12.525 2.99 -10 4 C-9.67 3.01 -9.34 2.02 -9 1 C-6.04335481 -0.4783226 -3.25770263 -0.06032783 0 0 Z M-12 5 C-11 7 -11 7 -11 7 Z " fill="#0C090A" transform="translate(276,31)"/>
<path d="M0 0 C0.66 0.33 1.32 0.66 2 1 C1.67 1.66 1.34 2.32 1 3 C1 3.33 1 3.66 1 4 C1.66 4 2.32 4 3 4 C2.34 5.65 1.68 7.3 1 9 C-0.32 8.67 -1.64 8.34 -3 8 C-3 7.34 -3 6.68 -3 6 C-7.61507774 4.95785309 -7.61507774 4.95785309 -12 6 C-12 4.68 -12 3.36 -12 2 C-10.948125 2.04125 -9.89625 2.0825 -8.8125 2.125 C-5.22289845 2.00730815 -3.22751002 1.38321858 0 0 Z " fill="#121011" transform="translate(377,40)"/>
<path d="M0 0 C2.5 1.375 2.5 1.375 5 3 C5 3.66 5 4.32 5 5 C3.6078125 5.1546875 3.6078125 5.1546875 2.1875 5.3125 C-1.0677766 6.01461848 -2.08373387 6.37774108 -4 9 C-4.33 9.99 -4.66 10.98 -5 12 C-6.875 11.75 -6.875 11.75 -9 11 C-10.3125 9.1875 -10.3125 9.1875 -11 7 C-10.625 4.75 -10.625 4.75 -10 3 C-9.34 3.66 -8.68 4.32 -8 5 C-8.33 5.99 -8.66 6.98 -9 8 C-7.02463255 7.65213292 -7.02463255 7.65213292 -5 7 C-4.67 6.34 -4.34 5.68 -4 5 C-3.34 5 -2.68 5 -2 5 C-1.34 3.35 -0.68 1.7 0 0 Z " fill="#080707" transform="translate(342,29)"/>
<path d="M0 0 C2.6875 2.6875 2.6875 2.6875 4 5 C-0.67607362 4.36809816 -0.67607362 4.36809816 -2.375 2.4375 C-4.98498162 0.1286701 -7.66926021 0.81146756 -11 1 C-11 1.66 -11 2.32 -11 3 C-13.92879371 2.37240135 -16.36095629 1.41377341 -19 0 C-12.05749369 -3.5367485 -7.12183932 -3.23512123 0 0 Z " fill="#0E5282" transform="translate(142,27)"/>
<path d="M0 0 C2.76276177 0.52268466 5.3260876 1.10869587 8 2 C9.33106622 2.34227417 10.66400079 2.67751743 12 3 C11.67 4.32 11.34 5.64 11 7 C10.01 6.34 9.02 5.68 8 5 C5.525 6.485 5.525 6.485 3 8 C3 7.34 3 6.68 3 6 C1.02 6.33 -0.96 6.66 -3 7 C-3.33 6.01 -3.66 5.02 -4 4 C-2.68 3.67 -1.36 3.34 0 3 C0 2.01 0 1.02 0 0 Z " fill="#151014" transform="translate(322,39)"/>
<path d="M0 0 C1.32 0.33 2.64 0.66 4 1 C5.0326802 3.78823655 5.04509293 4.8677274 4.0625 7.75 C3.711875 8.4925 3.36125 9.235 3 10 C0.35906923 9.6478759 -0.71848358 9.34271564 -2.4375 7.25 C-3 5 -3 5 -1.625 2.25 C-1.08875 1.5075 -0.5525 0.765 0 0 Z " fill="#0762AA" transform="translate(145,49)"/>
<path d="M0 0 C0.804375 0.495 1.60875 0.99 2.4375 1.5 C6.36218396 3.15249851 8.79324834 3.07413497 12.94140625 2.90625 C15.70277426 3.0320049 17.11278252 4.03072959 19 6 C18 7 18 7 15 7.25 C9.84897679 7.17550173 4.10830034 5.91706071 0.234375 2.39453125 C-0.17296875 1.93433594 -0.5803125 1.47414063 -1 1 C-0.67 0.67 -0.34 0.34 0 0 Z " fill="#0A4B7D" transform="translate(113,67)"/>
<path d="M0 0 C0.99 0.33 1.98 0.66 3 1 C3.73046875 3.06640625 3.73046875 3.06640625 4.1875 5.5625 C4.34605469 6.38878906 4.50460938 7.21507812 4.66796875 8.06640625 C4.77753906 8.70449219 4.88710937 9.34257813 5 10 C3.02 10.99 3.02 10.99 1 12 C0.71125 11.195625 0.4225 10.39125 0.125 9.5625 C-0.73262568 6.8673532 -0.73262568 6.8673532 -3 6 C-2 4 -1 2 0 0 Z " fill="#221E20" transform="translate(237,36)"/>
<path d="M0 0 C4.35937258 0.9907665 7.03778651 4.17024967 9.75 7.625 C9.75 8.285 9.75 8.945 9.75 9.625 C11.07 10.285 12.39 10.945 13.75 11.625 C10.75 13.625 10.75 13.625 8.75 13.625 C8.65589844 13.04234375 8.56179687 12.4596875 8.46484375 11.859375 C7.59037621 9.12606664 6.35942413 7.86660186 4.3125 5.875 C3.69503906 5.26140625 3.07757813 4.6478125 2.44140625 4.015625 C0.85746481 2.41330608 0.85746481 2.41330608 -1.25 2.625 C-1.58 3.285 -1.91 3.945 -2.25 4.625 C-3.24 4.295 -4.23 3.965 -5.25 3.625 C-3.61646404 1.56158615 -2.5583885 0.71066347 0 0 Z " fill="#125484" transform="translate(127.25,39.375)"/>
<path d="M0 0 C1.32 0.33 2.64 0.66 4 1 C4.25532751 4.06393013 4.21861333 5.63233212 2.625 8.3125 C2.08875 8.869375 1.5525 9.42625 1 10 C0.34 10 -0.32 10 -1 10 C-2.37310707 11.29233607 -3.71034824 12.62437146 -5 14 C-4.79375 13.0925 -4.5875 12.185 -4.375 11.25 C-3.9872755 7.88972103 -4.19588033 6.75924185 -6 4 C-5.1028125 4.4640625 -5.1028125 4.4640625 -4.1875 4.9375 C-1.91043228 6.10209704 -1.91043228 6.10209704 1 7 C0.67 4.69 0.34 2.38 0 0 Z " fill="#09528B" transform="translate(147,34)"/>
<path d="M0 0 C-0.515625 0.4125 -1.03125 0.825 -1.5625 1.25 C-2.036875 1.8275 -2.51125 2.405 -3 3 C-2.77242269 5.16299211 -2.77242269 5.16299211 -2 7 C-3.32 7 -4.64 7 -6 7 C-6.33 6.01 -6.66 5.02 -7 4 C-7.66 4 -8.32 4 -9 4 C-9 2.35 -9 0.7 -9 -1 C-5.22102349 -2.0497157 -3.35080929 -2.10976881 0 0 Z M-12 4 C-11.01 4.33 -10.02 4.66 -9 5 C-9.99 5 -10.98 5 -12 5 C-12 4.67 -12 4.34 -12 4 Z " fill="#292527" transform="translate(258,61)"/>
<path d="M0 0 C0.66 0.33 1.32 0.66 2 1 C1.01 2.485 1.01 2.485 0 4 C0.99 5.485 0.99 5.485 2 7 C2.625 9.1875 2.625 9.1875 3 11 C2.38125 11.433125 1.7625 11.86625 1.125 12.3125 C-1.2197245 13.99740483 -1.2197245 13.99740483 -3 17 C-2.7215625 15.63875 -2.7215625 15.63875 -2.4375 14.25 C-2.02986496 11.22185402 -2.15214914 9.82616952 -3 7 C-3 3 -3 3 -1.5 1.25 C-1.005 0.8375 -0.51 0.425 0 0 Z " fill="#181415" transform="translate(235,37)"/>
<path d="M0 0 C1.65 0.33 3.3 0.66 5 1 C5.33 3.31 5.66 5.62 6 8 C4.35 8.33 2.7 8.66 1 9 C0.4375 7.0625 0.4375 7.0625 0 5 C0.33 4.67 0.66 4.34 1 4 C0.34 3.34 -0.32 2.68 -1 2 C-0.67 1.34 -0.34 0.68 0 0 Z " fill="#1B191A" transform="translate(408,59)"/>
<path d="M0 0 C0 0.66 0 1.32 0 2 C0.99 2.33 1.98 2.66 3 3 C1.35 4.65 -0.3 6.3 -2 8 C-2.66 7.67 -3.32 7.34 -4 7 C-4.33333333 5 -4.66666667 3 -5 1 C-5.66 0.67 -6.32 0.34 -7 0 C-4.3333581 -1.33332095 -2.83319697 -0.67102033 0 0 Z " fill="#2B2627" transform="translate(398,44)"/>
<path d="M0 0 C0.61875 0.804375 1.2375 1.60875 1.875 2.4375 C3.74164041 5.03874519 3.74164041 5.03874519 6 6 C5.67 7.32 5.34 8.64 5 10 C4.34 9.67 3.68 9.34 3 9 C0.90178785 9.39938767 0.90178785 9.39938767 -1 10 C-2.27351308 7.45297384 -1.80191925 6.5717055 -1.0625 3.875 C-0.86785156 3.15054688 -0.67320312 2.42609375 -0.47265625 1.6796875 C-0.31667969 1.12539063 -0.16070312 0.57109375 0 0 Z " fill="#211D1E" transform="translate(308,43)"/>
<path d="M0 0 C1.9375 0.75 1.9375 0.75 4 2 C4.75 4.125 4.75 4.125 5 6 C0.15507803 7.51403812 -3.2591011 6.36602172 -8 5 C-5 3 -5 3 -2.8125 3.375 C-2.214375 3.58125 -1.61625 3.7875 -1 4 C-0.67 2.68 -0.34 1.36 0 0 Z " fill="#161314" transform="translate(294,47)"/>
<path d="M0 0 C3.63 0 7.26 0 11 0 C9.515 1.98 9.515 1.98 8 4 C7.30419733 5.31836295 6.62775567 6.64791086 6 8 C4.68 7.67 3.36 7.34 2 7 C1.855625 6.401875 1.71125 5.80375 1.5625 5.1875 C1.1127561 3.43849596 0.57107659 1.71322977 0 0 Z " fill="#161013" transform="translate(400,41)"/>
<path d="M0 0 C-1 2 -2 4 -3 6 C-4.66666667 6 -6.33333333 6 -8 6 C-8 4.02 -8 2.04 -8 0 C-5.13822943 -1.43088528 -3.06624227 -0.59991697 0 0 Z " fill="#252022" transform="translate(67,52)"/>
<path d="M0 0 C0.66 0 1.32 0 2 0 C3.4606285 2.64738916 4 3.89448334 4 7 C1.6875 7.625 1.6875 7.625 -1 8 C-1.99 7.34 -2.98 6.68 -4 6 C-6.15274948 6.30840599 -6.15274948 6.30840599 -8 7 C-6.68 5.68 -5.36 4.36 -4 3 C-2.35 3.99 -0.7 4.98 1 6 C0.34 5.01 -0.32 4.02 -1 3 C-0.67 2.01 -0.34 1.02 0 0 Z " fill="#131114" transform="translate(330,46)"/>
<path d="M0 0 C4.23092172 -0.36265043 6.62637846 0.39749195 10 3 C10 3.99 10 4.98 10 6 C10.66 6.33 11.32 6.66 12 7 C9.69 6.67 7.38 6.34 5 6 C5 5.34 5 4.68 5 4 C3.02 3.34 1.04 2.68 -1 2 C-0.67 1.34 -0.34 0.68 0 0 Z " fill="#221D1F" transform="translate(285,32)"/>
<path d="M0 0 C0.33 1.65 0.66 3.3 1 5 C2.65 4.67 4.3 4.34 6 4 C6 4.99 6 5.98 6 7 C4.02 7 2.04 7 0 7 C0 6.34 0 5.68 0 5 C-2.475 4.01 -2.475 4.01 -5 3 C-2.25 0 -2.25 0 0 0 Z M5 0 C5.99 0.33 6.98 0.66 8 1 C7.67 1.99 7.34 2.98 7 4 C6.34 2.68 5.68 1.36 5 0 Z " fill="#181415" transform="translate(46,57)"/>
<path d="M0 0 C1.60294922 0.01353516 1.60294922 0.01353516 3.23828125 0.02734375 C4.04652344 0.03894531 4.85476563 0.05054687 5.6875 0.0625 C5.6875 0.7225 5.6875 1.3825 5.6875 2.0625 C4.93984375 2.08828125 4.1921875 2.1140625 3.421875 2.140625 C-2.71942205 2.34936884 -2.71942205 2.34936884 -8 5.125 C-8.433125 5.764375 -8.86625 6.40375 -9.3125 7.0625 C-9.6425 6.4025 -9.9725 5.7425 -10.3125 5.0625 C-9.9825 4.4025 -9.6525 3.7425 -9.3125 3.0625 C-9.9725 3.0625 -10.6325 3.0625 -11.3125 3.0625 C-11.3125 2.4025 -11.3125 1.7425 -11.3125 1.0625 C-7.47525828 0.15836327 -3.93747726 -0.04326898 0 0 Z " fill="#100F0F" transform="translate(323.3125,29.9375)"/>
<path d="M0 0 C1.95216435 1.95216435 2.84826645 3.53199953 4 6 C3.34 6 2.68 6 2 6 C1.67 6.66 1.34 7.32 1 8 C-0.65 7.67 -2.3 7.34 -4 7 C-4.33 5.68 -4.66 4.36 -5 3 C-2 3 -2 3 0 4 C0 2.68 0 1.36 0 0 Z " fill="#140E10" transform="translate(408,47)"/>
<path d="M0 0 C0.99 0 1.98 0 3 0 C3 0.66 3 1.32 3 2 C3.99 1.67 4.98 1.34 6 1 C5.37240135 3.92879371 4.41377341 6.36095629 3 9 C2.34 9 1.68 9 1 9 C0.45627049 5.94152152 0 3.11227195 0 0 Z " fill="#201D1F" transform="translate(287,60)"/>
<path d="M0 0 C0.99 0 1.98 0 3 0 C1.68874798 5.6383837 -0.328746 7.85405343 -5 11 C-5.99 10.67 -6.98 10.34 -8 10 C-4 6 -4 6 -1 5 C-0.67 3.35 -0.34 1.7 0 0 Z " fill="#191617" transform="translate(32,52)"/>
<path d="M0 0 C1.32 0.33 2.64 0.66 4 1 C4.33 3.31 4.66 5.62 5 8 C5.66 8 6.32 8 7 8 C7 8.66 7 9.32 7 10 C4.13904359 8.7175023 1.88634082 7.54656011 0 5 C-0.1875 2.3125 -0.1875 2.3125 0 0 Z " fill="#135B93" transform="translate(106,58)"/>
<path d="M0 0 C1.32 0.33 2.64 0.66 4 1 C4 1.99 4 2.98 4 4 C3.34 4 2.68 4 2 4 C1.67 5.65 1.34 7.3 1 9 C-0.65 8.67 -2.3 8.34 -4 8 C-4 7.34 -4 6.68 -4 6 C-3.34 5.67 -2.68 5.34 -2 5 C-1.27840576 3.35636866 -0.60648579 1.68949614 0 0 Z " fill="#251F24" transform="translate(277,59)"/>
<path d="M0 0 C5.27315333 0.4452885 10.01770224 1.08373163 15 3 C12.21176345 4.0326802 11.1322726 4.04509293 8.25 3.0625 C7.5075 2.711875 6.765 2.36125 6 2 C6 2.66 6 3.32 6 4 C5.01 4.33 4.02 4.66 3 5 C2.87625 4.360625 2.7525 3.72125 2.625 3.0625 C2.315625 2.0415625 2.315625 2.0415625 2 1 C1.34 0.67 0.68 0.34 0 0 Z " fill="#141112" transform="translate(377,50)"/>
<path d="M0 0 C1.0625 1.8125 1.0625 1.8125 2 4 C1.67 4.99 1.34 5.98 1 7 C-0.65 7.33 -2.3 7.66 -4 8 C-4 4 -4 4 -2 1.75 C-1.01 0.88375 -1.01 0.88375 0 0 Z " fill="#100E11" transform="translate(352,62)"/>
<path d="M0 0 C1.20628008 2.33214148 2.1654738 4.49642139 3 7 C-0.153368 7.70074844 -2.72724974 8 -6 8 C-5.67 7.01 -5.34 6.02 -5 5 C-3.68 5 -2.36 5 -1 5 C-0.67 3.35 -0.34 1.7 0 0 Z " fill="#181517" transform="translate(204,61)"/>
<path d="M0 0 C0.66 0.33 1.32 0.66 2 1 C1.09515208 2.15518918 0.1755794 3.29885406 -0.75 4.4375 C-1.26046875 5.07558594 -1.7709375 5.71367188 -2.296875 6.37109375 C-4.23801361 8.22764145 -5.34908867 8.71299188 -8 9 C-8.99 8.67 -9.98 8.34 -11 8 C-10.67 6.68 -10.34 5.36 -10 4 C-8.68 4.66 -7.36 5.32 -6 6 C-4.02 4.02 -2.04 2.04 0 0 Z " fill="#16558B" transform="translate(134,53)"/>
<path d="M0 0 C1.65 0.33 3.3 0.66 5 1 C4.67 2.65 4.34 4.3 4 6 C2.68 5.67 1.36 5.34 0 5 C-0.33 5.66 -0.66 6.32 -1 7 C-1.625 5.1875 -1.625 5.1875 -2 3 C-1.34 2.01 -0.68 1.02 0 0 Z " fill="#1E1A1F" transform="translate(183,62)"/>
<path d="M0 0 C2.31 0 4.62 0 7 0 C7.33 0.66 7.66 1.32 8 2 C7.34 2 6.68 2 6 2 C5.67 2.99 5.34 3.98 5 5 C2.9375 5.6875 2.9375 5.6875 1 6 C0.67 4.02 0.34 2.04 0 0 Z " fill="#282627" transform="translate(228,61)"/>
<path d="M0 0 C-0.33 1.32 -0.66 2.64 -1 4 C-1.66 4 -2.32 4 -3 4 C-3 4.66 -3 5.32 -3 6 C-3.99 6 -4.98 6 -6 6 C-6 4.02 -6 2.04 -6 0 C-2.25 -1.125 -2.25 -1.125 0 0 Z " fill="#221C1E" transform="translate(452,46)"/>
<path d="M0 0 C0 1.65 0 3.3 0 5 C-1.98 5.33 -3.96 5.66 -6 6 C-6.33 4.68 -6.66 3.36 -7 2 C-2.25 0 -2.25 0 0 0 Z " fill="#221D1E" transform="translate(193,44)"/>
<path d="M0 0 C-0.75 1.9375 -0.75 1.9375 -2 4 C-4.0625 4.625 -4.0625 4.625 -6 5 C-6.33 5.66 -6.66 6.32 -7 7 C-7.33 6.34 -7.66 5.68 -8 5 C-7.67 4.34 -7.34 3.68 -7 3 C-7.66 2.67 -8.32 2.34 -9 2 C-5.86501708 0.14223235 -3.62528568 -0.20140476 0 0 Z " fill="#141112" transform="translate(428,41)"/>
<path d="M0 0 C0.33 0.66 0.66 1.32 1 2 C1.66 2 2.32 2 3 2 C3.625 4.375 3.625 4.375 4 7 C3.34 7.66 2.68 8.32 2 9 C2 8.01 2 7.02 2 6 C0.68 6.33 -0.64 6.66 -2 7 C-2 6.34 -2 5.68 -2 5 C-2.66 4.67 -3.32 4.34 -4 4 C-2.68 2.68 -1.36 1.36 0 0 Z " fill="#221C20" transform="translate(311,31)"/>
<path d="M0 0 C0.66 0.66 1.32 1.32 2 2 C1.34 4.31 0.68 6.62 0 9 C-1.65 8.67 -3.3 8.34 -5 8 C-4 5 -4 5 -2 3 C-2.33 2.34 -2.66 1.68 -3 1 C-2.01 0.67 -1.02 0.34 0 0 Z " fill="#0A5D9D" transform="translate(142,41)"/>
<path d="M0 0 C1.45823212 -0.0270043 2.91660675 -0.04639787 4.375 -0.0625 C5.18710938 -0.07410156 5.99921875 -0.08570312 6.8359375 -0.09765625 C9 0 9 0 11 1 C11 1.66 11 2.32 11 3 C11.66 3.33 12.32 3.66 13 4 C12.34 5.32 11.68 6.64 11 8 C10.34 6.35 9.68 4.7 9 3 C7.68 3.33 6.36 3.66 5 4 C4.67 3.34 4.34 2.68 4 2 C1.98330173 0.86649466 1.98330173 0.86649466 0 0 Z " fill="#140A10" transform="translate(216,31)"/>
<path d="M0 0 C0.04241723 2.33294775 0.04092937 4.66702567 0 7 C-1 8 -1 8 -3.5625 8.0625 C-4.366875 8.041875 -5.17125 8.02125 -6 8 C-5.34 7.01 -4.68 6.02 -4 5 C-4.30840599 2.84725052 -4.30840599 2.84725052 -5 1 C-1.125 0 -1.125 0 0 0 Z " fill="#191617" transform="translate(227,46)"/>
<path d="M0 0 C0.33 0.66 0.66 1.32 1 2 C3.02463255 2.65213292 3.02463255 2.65213292 5 3 C5.625 4.875 5.625 4.875 6 7 C5.34 7.66 4.68 8.32 4 9 C4 8.01 4 7.02 4 6 C2.68 6 1.36 6 0 6 C0 5.34 0 4.68 0 4 C-0.66 3.67 -1.32 3.34 -2 3 C-1.34 2.01 -0.68 1.02 0 0 Z " fill="#221D20" transform="translate(318,59)"/>
<path d="M0 0 C2.33333333 2.33333333 4.66666667 4.66666667 7 7 C4.69 7.33 2.38 7.66 0 8 C-0.38063221 5.6739143 -0.71269945 3.33944736 -1 1 C-0.67 0.67 -0.34 0.34 0 0 Z " fill="#121011" transform="translate(198,47)"/>
<path d="M0 0 C0.99 0.33 1.98 0.66 3 1 C3.33 1.99 3.66 2.98 4 4 C1.525 5.485 1.525 5.485 -1 7 C-1.33 5.35 -1.66 3.7 -2 2 C-1.34 2 -0.68 2 0 2 C0 1.34 0 0.68 0 0 Z " fill="#252122" transform="translate(178,36)"/>
<path d="M0 0 C7.45937249 0.61142397 7.45937249 0.61142397 10 2.4375 C11 4 11 4 11 6 C6.49197399 4.74194623 3.5087188 3.09592835 0 0 Z " fill="#0D0A0C" transform="translate(286,30)"/>
<path d="M0 0 C2.475 0.495 2.475 0.495 5 1 C5 2.65 5 4.3 5 6 C3.68 6.33 2.36 6.66 1 7 C0.67 4.69 0.34 2.38 0 0 Z " fill="#211E20" transform="translate(382,61)"/>
<path d="M0 0 C0.99 0.33 1.98 0.66 3 1 C3.17835515 5.54805635 2.99785435 8.8794254 1 13 C0.67 13 0.34 13 0 13 C-0.07471734 9.1146983 0.02763494 5.75055095 1 2 C0.67 1.34 0.34 0.68 0 0 Z " fill="#0D4675" transform="translate(148,49)"/>
<path d="M0 0 C-0.33 1.32 -0.66 2.64 -1 4 C-3.31 3.67 -5.62 3.34 -8 3 C-8 2.34 -8 1.68 -8 1 C-5.10765685 0.17361624 -3.11257569 0 0 0 Z " fill="#1A1518" transform="translate(278,32)"/>
<path d="M0 0 C0.66 0.33 1.32 0.66 2 1 C1.6875 2.9375 1.6875 2.9375 1 5 C0.01 5.33 -0.98 5.66 -2 6 C-2.66 5.67 -3.32 5.34 -4 5 C-2.25 1.125 -2.25 1.125 0 0 Z " fill="#110F10" transform="translate(309,29)"/>
<path d="M0 0 C0.33 0.66 0.66 1.32 1 2 C1.99 2.33 2.98 2.66 4 3 C4.33 3.66 4.66 4.32 5 5 C2.03 5 -0.94 5 -4 5 C-3.34 4.67 -2.68 4.34 -2 4 C-2 3.34 -2 2.68 -2 2 C-1.34 2 -0.68 2 0 2 C0 1.34 0 0.68 0 0 Z " fill="#151415" transform="translate(309,64)"/>
<path d="M0 0 C1.0828125 0.495 1.0828125 0.495 2.1875 1 C5.01697427 2.00603529 7.02895466 2.16977402 10 2 C10.33 2.66 10.66 3.32 11 4 C2.42857143 4.28571429 2.42857143 4.28571429 -1 2 C-0.67 1.34 -0.34 0.68 0 0 Z " fill="#140F10" transform="translate(13,60)"/>
<path d="M0 0 C1.32 0.33 2.64 0.66 4 1 C4.1875 3.375 4.1875 3.375 4 6 C3.01 6.66 2.02 7.32 1 8 C0.67 5.36 0.34 2.72 0 0 Z " fill="#094C7B" transform="translate(147,34)"/>
<path d="M0 0 C-0.66 1.32 -1.32 2.64 -2 4 C-2.99 4 -3.98 4 -5 4 C-5 3.34 -5 2.68 -5 2 C-5.99 1.67 -6.98 1.34 -8 1 C-4.93251126 -0.86240388 -3.40254489 -1.2151946 0 0 Z " fill="#272325" transform="translate(179,33)"/>
<path d="M0 0 C0.99 0 1.98 0 3 0 C3.33 1.98 3.66 3.96 4 6 C2.68 5.67 1.36 5.34 0 5 C-0.5625 3.0625 -0.5625 3.0625 -1 1 C-0.67 0.67 -0.34 0.34 0 0 Z " fill="#0267B5" transform="translate(133,37)"/>
<path d="M0 0 C-3.20336822 2.83374881 -5.78087253 3.5205537 -10 4 C-10 3.34 -10 2.68 -10 2 C-3.375 -1.125 -3.375 -1.125 0 0 Z " fill="#124F81" transform="translate(142,69)"/>
<path d="M0 0 C0.99 0 1.98 0 3 0 C3 1.32 3 2.64 3 4 C3.66 4.33 4.32 4.66 5 5 C2.36 4.67 -0.28 4.34 -3 4 C-1.6875 2 -1.6875 2 0 0 Z " fill="#211F22" transform="translate(314,64)"/>
<path d="M0 0 C0.33 0.66 0.66 1.32 1 2 C1.66 2.33 2.32 2.66 3 3 C3 4.98 3 6.96 3 9 C1.68 9.33 0.36 9.66 -1 10 C-0.835 8.906875 -0.67 7.81375 -0.5 6.6875 C0.06718184 3.12474127 0.06718184 3.12474127 0 0 Z " fill="#111011" transform="translate(298,59)"/>
<path d="M0 0 C1.32 0.33 2.64 0.66 4 1 C4 1.99 4 2.98 4 4 C2.02 4.33 0.04 4.66 -2 5 C-1.34 3.35 -0.68 1.7 0 0 Z " fill="#0F5D96" transform="translate(145,49)"/>
<path d="M0 0 C0.33 0 0.66 0 1 0 C1 1.65 1 3.3 1 5 C-1.31 4.67 -3.62 4.34 -6 4 C-5.01 3.01 -4.02 2.02 -3 1 C-2.01 1.33 -1.02 1.66 0 2 C0 1.34 0 0.68 0 0 Z " fill="#1B1518" transform="translate(260,40)"/>
<path d="M0 0 C1.32 0.33 2.64 0.66 4 1 C4 1.99 4 2.98 4 4 C2.02 4.33 0.04 4.66 -2 5 C-1.34 3.35 -0.68 1.7 0 0 Z " fill="#251F21" transform="translate(59,37)"/>
<path d="M0 0 C2.5 1.375 2.5 1.375 5 3 C5 3.66 5 4.32 5 5 C3.35 5.33 1.7 5.66 0 6 C-1.24546405 3.50907189 -0.7767578 2.58919267 0 0 Z " fill="#121111" transform="translate(342,29)"/>
<path d="M0 0 C0.99 0.66 1.98 1.32 3 2 C-0.63423209 4.32590854 -3.77088331 4.16265833 -8 4 C-5.28790442 2.19193628 -3.10633303 0.93189991 0 0 Z " fill="#205275" transform="translate(131,24)"/>
<path d="M0 0 C2 1 2 1 4 4 C1.6875 4.625 1.6875 4.625 -1 5 C-1.99 4.34 -2.98 3.68 -4 3 C-2.68 2.01 -1.36 1.02 0 0 Z " fill="#141416" transform="translate(221,63)"/>
<path d="M0 0 C2.475 0.495 2.475 0.495 5 1 C5.33 2.65 5.66 4.3 6 6 C5.34 6 4.68 6 4 6 C4 5.34 4 4.68 4 4 C3.01 4.33 2.02 4.66 1 5 C0.67 3.35 0.34 1.7 0 0 Z " fill="#252023" transform="translate(364,61)"/>
<path d="M0 0 C0.94875 0.04125 1.8975 0.0825 2.875 0.125 C2.215 1.445 1.555 2.765 0.875 4.125 C-1.105 3.465 -3.085 2.805 -5.125 2.125 C-3.125 0.125 -3.125 0.125 0 0 Z " fill="#0E609E" transform="translate(125.125,27.875)"/>
<path d="M0 0 C0.66 0.99 1.32 1.98 2 3 C2.66 3 3.32 3 4 3 C3.34 4.32 2.68 5.64 2 7 C0.68 6.34 -0.64 5.68 -2 5 C-1.34 4.67 -0.68 4.34 0 4 C0 2.68 0 1.36 0 0 Z " fill="#1E171D" transform="translate(364,62)"/>
<path d="M0 0 C-0.66 1.32 -1.32 2.64 -2 4 C-2.66 4 -3.32 4 -4 4 C-4 3.01 -4 2.02 -4 1 C-4.99 1.33 -5.98 1.66 -7 2 C-7 1.34 -7 0.68 -7 0 C-4.3333581 -1.33332095 -2.83319697 -0.67102033 0 0 Z " fill="#1B1819" transform="translate(391,61)"/>
<path d="M0 0 C0.66 1.32 1.32 2.64 2 4 C0.02 4.99 0.02 4.99 -2 6 C-2.66 5.34 -3.32 4.68 -4 4 C-2.68 2.68 -1.36 1.36 0 0 Z " fill="#151011" transform="translate(355,49)"/>
<path d="M0 0 C0.33 0 0.66 0 1 0 C1.33 4.62 1.66 9.24 2 14 C-1 11 -1 11 -1.07421875 8.30078125 C-0.94660156 7.31464844 -0.81898437 6.32851563 -0.6875 5.3125 C-0.56761719 4.31863281 -0.44773437 3.32476562 -0.32421875 2.30078125 C-0.21722656 1.54152344 -0.11023438 0.78226563 0 0 Z " fill="#0F62A5" transform="translate(106,45)"/>
<path d="M0 0 C0.99 0.33 1.98 0.66 3 1 C3.8125 2.8125 3.8125 2.8125 4 5 C3.0625 7.25 3.0625 7.25 2 9 C1.87625 8.030625 1.7525 7.06125 1.625 6.0625 C1.41875 5.051875 1.2125 4.04125 1 3 C0.34 2.67 -0.32 2.34 -1 2 C-0.67 1.34 -0.34 0.68 0 0 Z " fill="#0C0A0B" transform="translate(450,41)"/>
<path d="M0 0 C-0.33 0.99 -0.66 1.98 -1 3 C-1.99 3.33 -2.98 3.66 -4 4 C-4.66 2.68 -5.32 1.36 -6 0 C-2.25 -1.125 -2.25 -1.125 0 0 Z " fill="#231D20" transform="translate(274,37)"/>
<path d="M0 0 C0.66 0 1.32 0 2 0 C2.625 1.875 2.625 1.875 3 4 C2.34 4.66 1.68 5.32 1 6 C-0.32 5.34 -1.64 4.68 -3 4 C-1.625 2 -1.625 2 0 0 Z " fill="#252021" transform="translate(49,36)"/>
<path d="M0 0 C1.65 0 3.3 0 5 0 C4.34 0.66 3.68 1.32 3 2 C4.32 2.66 5.64 3.32 7 4 C4.69 4 2.38 4 0 4 C-0.33 3.34 -0.66 2.68 -1 2 C-0.67 1.34 -0.34 0.68 0 0 Z " fill="#150F10" transform="translate(232,32)"/>
<path d="M0 0 C0.33 0 0.66 0 1 0 C1 2.64 1 5.28 1 8 C0.67 8 0.34 8 0 8 C0 5.36 0 2.72 0 0 Z " fill="#000000" transform="translate(196,40)"/>
<path d="" fill="#000000" transform="translate(0,0)"/>
<path d="M0 0 C2 1 2 1 2 1 Z " fill="#000000" transform="translate(199,57)"/>
<path d="" fill="#000000" transform="translate(0,0)"/>
<path d="M0 0 C2 1 2 1 2 1 Z " fill="#000000" transform="translate(311,55)"/>
<path d="" fill="#000000" transform="translate(0,0)"/>
<path d="" fill="#150015" transform="translate(0,0)"/>
<path d="M0 0 C2 1 2 1 2 1 Z " fill="#121212" transform="translate(169,52)"/>
<path d="M0 0 C2 1 2 1 2 1 Z " fill="#000000" transform="translate(164,52)"/>
<path d="M0 0 C2 1 2 1 2 1 Z " fill="#000000" transform="translate(83,43)"/>
<path d="" fill="#000000" transform="translate(0,0)"/>
<path d="" fill="#000000" transform="translate(0,0)"/>
<path d="" fill="#000000" transform="translate(0,0)"/>
<path d="" fill="#000000" transform="translate(0,0)"/>
<path d="" fill="#000000" transform="translate(0,0)"/>
<path d="" fill="#000000" transform="translate(0,0)"/>
<path d="" fill="#000000" transform="translate(0,0)"/>
<path d="" fill="#000000" transform="translate(0,0)"/>
<path d="" fill="#000000" transform="translate(0,0)"/>
<path d="" fill="#000000" transform="translate(0,0)"/>
<path d="" fill="#000000" transform="translate(0,0)"/>
<path d="" fill="#000000" transform="translate(0,0)"/>
<path d="" fill="#000000" transform="translate(0,0)"/>
<path d="" fill="#000000" transform="translate(0,0)"/>
<path d="" fill="#000000" transform="translate(0,0)"/>
<path d="" fill="#000000" transform="translate(0,0)"/>
<path d="" fill="#000000" transform="translate(0,0)"/>
<path d="" fill="#242424" transform="translate(0,0)"/>
<path d="" fill="#000000" transform="translate(0,0)"/>
<path d="" fill="#000000" transform="translate(0,0)"/>
<path d="" fill="#000000" transform="translate(0,0)"/>
<path d="" fill="#000000" transform="translate(0,0)"/>
<path d="" fill="#000000" transform="translate(0,0)"/>
<path d="" fill="#000000" transform="translate(0,0)"/>
<path d="" fill="#000000" transform="translate(0,0)"/>
<path d="" fill="#000000" transform="translate(0,0)"/>
<path d="" fill="#000000" transform="translate(0,0)"/>
<path d="" fill="#000000" transform="translate(0,0)"/>
<path d="" fill="#000000" transform="translate(0,0)"/>
<path d="" fill="#000000" transform="translate(0,0)"/>
<path d="" fill="#000000" transform="translate(0,0)"/>
<path d="" fill="#000000" transform="translate(0,0)"/>
<path d="" fill="#000000" transform="translate(0,0)"/>
<path d="" fill="#000000" transform="translate(0,0)"/>
<path d="" fill="#000000" transform="translate(0,0)"/>
<path d="" fill="#000000" transform="translate(0,0)"/>
<path d="" fill="#000000" transform="translate(0,0)"/>
<path d="" fill="#000000" transform="translate(0,0)"/>
<path d="" fill="#000000" transform="translate(0,0)"/>
<path d="" fill="#000000" transform="translate(0,0)"/>
<path d="" fill="#000000" transform="translate(0,0)"/>
<path d="" fill="#000000" transform="translate(0,0)"/>
<path d="" fill="#000000" transform="translate(0,0)"/>
<path d="" fill="#000000" transform="translate(0,0)"/>
<path d="" fill="#000000" transform="translate(0,0)"/>
<path d="" fill="#000000" transform="translate(0,0)"/>
<path d="" fill="#000000" transform="translate(0,0)"/>
<path d="" fill="#000000" transform="translate(0,0)"/>
<path d="" fill="#242424" transform="translate(0,0)"/>
<path d="" fill="#000000" transform="translate(0,0)"/>
<path d="" fill="#000000" transform="translate(0,0)"/>
<path d="" fill="#000000" transform="translate(0,0)"/>
<path d="" fill="#000000" transform="translate(0,0)"/>
<path d="" fill="#1C1C1C" transform="translate(0,0)"/>
<path d="" fill="#000000" transform="translate(0,0)"/>
<path d="" fill="#000000" transform="translate(0,0)"/>
<path d="" fill="#000000" transform="translate(0,0)"/>
<path d="" fill="#000000" transform="translate(0,0)"/>
<path d="" fill="#000000" transform="translate(0,0)"/>
<path d="" fill="#000000" transform="translate(0,0)"/>
<path d="" fill="#242424" transform="translate(0,0)"/>
<path d="" fill="#000000" transform="translate(0,0)"/>
<path d="" fill="#000000" transform="translate(0,0)"/>
<path d="" fill="#000000" transform="translate(0,0)"/>
<path d="" fill="#000000" transform="translate(0,0)"/>
<path d="" fill="#000000" transform="translate(0,0)"/>
<path d="" fill="#000000" transform="translate(0,0)"/>
<path d="" fill="#404040" transform="translate(0,0)"/>
<path d="" fill="#000000" transform="translate(0,0)"/>
<path d="" fill="#400040" transform="translate(0,0)"/>
<path d="" fill="#000000" transform="translate(0,0)"/>
<path d="" fill="#000000" transform="translate(0,0)"/>
<path d="" fill="#202020" transform="translate(0,0)"/>
<path d="" fill="#000000" transform="translate(0,0)"/>
<path d="" fill="#000000" transform="translate(0,0)"/>
<path d="" fill="#000000" transform="translate(0,0)"/>
<path d="" fill="#000000" transform="translate(0,0)"/>
<path d="" fill="#000000" transform="translate(0,0)"/>
<path d="" fill="#000000" transform="translate(0,0)"/>
<path d="" fill="#000000" transform="translate(0,0)"/>
<path d="" fill="#000000" transform="translate(0,0)"/>
<path d="" fill="#000000" transform="translate(0,0)"/>
<path d="" fill="#000000" transform="translate(0,0)"/>
<path d="" fill="#000000" transform="translate(0,0)"/>
<path d="" fill="#000000" transform="translate(0,0)"/>
<path d="" fill="#000000" transform="translate(0,0)"/>
<path d="" fill="#000000" transform="translate(0,0)"/>
<path d="" fill="#000000" transform="translate(0,0)"/>
<path d="" fill="#000000" transform="translate(0,0)"/>
<path d="" fill="#000000" transform="translate(0,0)"/>
<path d="" fill="#000000" transform="translate(0,0)"/>
<path d="" fill="#000000" transform="translate(0,0)"/>
</svg>
